<svg xmlns="http://www.w3.org/2000/svg" xmlns:xlink="http://www.w3.org/1999/xlink" contentStyleType="text/css" data-diagram-type="DESCRIPTION" height="521px" preserveAspectRatio="none" style="width:778px;height:521px;background:#FFFFFF;" version="1.1" viewBox="0 0 778 521" width="778px" zoomAndPan="magnify"><title>Minecraft - Verteilungsdiagramm (Deployment)</title><defs/><g><g class="title" data-source-line="1"><text fill="#000000" font-family="sans-serif" font-size="14" font-weight="bold" lengthAdjust="spacing" textLength="311.165" x="226.4175" y="24.5332">Minecraft - Verteilungsdiagramm (Deployment)</text></g><!--cluster DesktopHW--><g class="cluster" data-entity="DesktopHW" data-source-line="11" data-uid="ent0002" id="cluster_DesktopHW"><polygon fill="none" points="16,250.6094,26,240.6094,425,240.6094,425,402.6094,415,412.6094,16,412.6094,16,250.6094" style="stroke:#181818;stroke-width:1;"/><line style="stroke:#181818;stroke-width:1;" x1="415" x2="425" y1="250.6094" y2="240.6094"/><line style="stroke:#181818;stroke-width:1;" x1="16" x2="415" y1="250.6094" y2="250.6094"/><line style="stroke:#181818;stroke-width:1;" x1="415" x2="415" y1="250.6094" y2="412.6094"/><text fill="#000000" font-family="sans-serif" font-size="14" font-weight="bold" lengthAdjust="spacing" textLength="79.3447" x="176.8276" y="268.1426">Desktop-PC</text></g><!--cluster DesktopOS--><g class="cluster" data-entity="DesktopOS" data-source-line="12" data-uid="ent0003" id="cluster_DesktopOS"><polygon fill="none" points="40,299.6094,50,289.6094,401,289.6094,401,378.6094,391,388.6094,40,388.6094,40,299.6094" style="stroke:#181818;stroke-width:1;"/><line style="stroke:#181818;stroke-width:1;" x1="391" x2="401" y1="299.6094" y2="289.6094"/><line style="stroke:#181818;stroke-width:1;" x1="40" x2="391" y1="299.6094" y2="299.6094"/><line style="stroke:#181818;stroke-width:1;" x1="391" x2="391" y1="299.6094" y2="388.6094"/><text fill="#000000" font-family="sans-serif" font-size="14" font-weight="bold" lengthAdjust="spacing" textLength="79.3516" x="176.8242" y="317.1426">Desktop OS</text></g><!--cluster MobileHW--><g class="cluster" data-entity="MobileHW" data-source-line="18" data-uid="ent0006" id="cluster_MobileHW"><polygon fill="none" points="164,54.6094,174,44.6094,436,44.6094,436,206.6094,426,216.6094,164,216.6094,164,54.6094" style="stroke:#181818;stroke-width:1;"/><line style="stroke:#181818;stroke-width:1;" x1="426" x2="436" y1="54.6094" y2="44.6094"/><line style="stroke:#181818;stroke-width:1;" x1="164" x2="426" y1="54.6094" y2="54.6094"/><line style="stroke:#181818;stroke-width:1;" x1="426" x2="426" y1="54.6094" y2="216.6094"/><text fill="#000000" font-family="sans-serif" font-size="14" font-weight="bold" lengthAdjust="spacing" textLength="145.4619" x="223.269" y="72.1426">Konsole / Mobilgeraet</text></g><!--cluster MobileOS--><g class="cluster" data-entity="MobileOS" data-source-line="19" data-uid="ent0007" id="cluster_MobileOS"><polygon fill="none" points="188,103.6094,198,93.6094,412,93.6094,412,182.6094,402,192.6094,188,192.6094,188,103.6094" style="stroke:#181818;stroke-width:1;"/><line style="stroke:#181818;stroke-width:1;" x1="402" x2="412" y1="103.6094" y2="93.6094"/><line style="stroke:#181818;stroke-width:1;" x1="188" x2="402" y1="103.6094" y2="103.6094"/><line style="stroke:#181818;stroke-width:1;" x1="402" x2="402" y1="103.6094" y2="192.6094"/><text fill="#000000" font-family="sans-serif" font-size="14" font-weight="bold" lengthAdjust="spacing" textLength="86.3379" x="252.8311" y="121.1426">Plattform-OS</text></g><!--cluster SelfHostHW--><g class="cluster" data-entity="SelfHostHW" data-source-line="24" data-uid="ent0009" id="cluster_SelfHostHW"><polygon fill="none" points="483,342.6094,493,332.6094,738,332.6094,738,494.6094,728,504.6094,483,504.6094,483,342.6094" style="stroke:#181818;stroke-width:1;"/><line style="stroke:#181818;stroke-width:1;" x1="728" x2="738" y1="342.6094" y2="332.6094"/><line style="stroke:#181818;stroke-width:1;" x1="483" x2="728" y1="342.6094" y2="342.6094"/><line style="stroke:#181818;stroke-width:1;" x1="728" x2="728" y1="342.6094" y2="504.6094"/><text fill="#000000" font-family="sans-serif" font-size="14" font-weight="bold" lengthAdjust="spacing" textLength="155.6406" x="528.6797" y="360.1426">Eigenes Server-System</text></g><!--cluster SelfHostOS--><g class="cluster" data-entity="SelfHostOS" data-source-line="25" data-uid="ent0010" id="cluster_SelfHostOS"><polygon fill="none" points="507,391.6094,517,381.6094,714,381.6094,714,470.6094,704,480.6094,507,480.6094,507,391.6094" style="stroke:#181818;stroke-width:1;"/><line style="stroke:#181818;stroke-width:1;" x1="704" x2="714" y1="391.6094" y2="381.6094"/><line style="stroke:#181818;stroke-width:1;" x1="507" x2="704" y1="391.6094" y2="391.6094"/><line style="stroke:#181818;stroke-width:1;" x1="704" x2="704" y1="391.6094" y2="480.6094"/><text fill="#000000" font-family="sans-serif" font-size="14" font-weight="bold" lengthAdjust="spacing" textLength="67.71" x="572.645" y="409.1426">Server OS</text></g><!--cluster RealmsHW--><g class="cluster" data-entity="RealmsHW" data-source-line="30" data-uid="ent0012" id="cluster_RealmsHW"><polygon fill="none" points="460,59.6094,470,49.6094,761,49.6094,761,211.6094,751,221.6094,460,221.6094,460,59.6094" style="stroke:#181818;stroke-width:1;"/><line style="stroke:#181818;stroke-width:1;" x1="751" x2="761" y1="59.6094" y2="49.6094"/><line style="stroke:#181818;stroke-width:1;" x1="460" x2="751" y1="59.6094" y2="59.6094"/><line style="stroke:#181818;stroke-width:1;" x1="751" x2="751" y1="59.6094" y2="221.6094"/><text fill="#000000" font-family="sans-serif" font-size="14" font-weight="bold" lengthAdjust="spacing" textLength="168.7998" x="522.1001" y="77.1426">Minecraft Realms (Cloud)</text></g><!--cluster RealmsEnv--><g class="cluster" data-entity="RealmsEnv" data-source-line="31" data-uid="ent0013" id="cluster_RealmsEnv"><polygon fill="none" points="484,108.6094,494,98.6094,737,98.6094,737,187.6094,727,197.6094,484,197.6094,484,108.6094" style="stroke:#181818;stroke-width:1;"/><line style="stroke:#181818;stroke-width:1;" x1="727" x2="737" y1="108.6094" y2="98.6094"/><line style="stroke:#181818;stroke-width:1;" x1="484" x2="727" y1="108.6094" y2="108.6094"/><line style="stroke:#181818;stroke-width:1;" x1="727" x2="727" y1="108.6094" y2="197.6094"/><text fill="#000000" font-family="sans-serif" font-size="14" font-weight="bold" lengthAdjust="spacing" textLength="114.3857" x="549.3071" y="126.1426">Managed Service</text></g><!--entity ClientJava--><g class="entity" data-entity="ClientJava" data-source-line="13" data-uid="ent0004" id="entity_ClientJava"><rect fill="#F1F1F1" height="40.6094" rx="2.5" ry="2.5" style="stroke:#181818;stroke-width:0.5;" width="170.041" x="215" y="331.1094"/><polygon fill="#F1F1F1" points="368.041,336.1094,368.041,350.1094,380.041,350.1094,380.041,342.1094,374.041,336.1094,368.041,336.1094" style="stroke:#181818;stroke-width:0.5;"/><line style="stroke:#181818;stroke-width:0.5;" x1="374.041" x2="374.041" y1="336.1094" y2="342.1094"/><line style="stroke:#181818;stroke-width:0.5;" x1="380.041" x2="374.041" y1="342.1094" y2="342.1094"/><text fill="#000000" font-family="sans-serif" font-size="14" lengthAdjust="spacing" textLength="140.041" x="225" y="358.6426">Minecraft Client (Java)</text></g><!--entity Launcher--><g class="entity" data-entity="Launcher" data-source-line="14" data-uid="ent0005" id="entity_Launcher"><rect fill="#F1F1F1" height="40.6094" rx="2.5" ry="2.5" style="stroke:#181818;stroke-width:0.5;" width="88.3789" x="56" y="331.1094"/><polygon fill="#F1F1F1" points="127.3789,336.1094,127.3789,350.1094,139.3789,350.1094,139.3789,342.1094,133.3789,336.1094,127.3789,336.1094" style="stroke:#181818;stroke-width:0.5;"/><line style="stroke:#181818;stroke-width:0.5;" x1="133.3789" x2="133.3789" y1="336.1094" y2="342.1094"/><line style="stroke:#181818;stroke-width:0.5;" x1="139.3789" x2="133.3789" y1="342.1094" y2="342.1094"/><text fill="#000000" font-family="sans-serif" font-size="14" lengthAdjust="spacing" textLength="58.3789" x="66" y="358.6426">Launcher</text></g><!--entity ClientBedrock--><g class="entity" data-entity="ClientBedrock" data-source-line="20" data-uid="ent0008" id="entity_ClientBedrock"><rect fill="#F1F1F1" height="40.6094" rx="2.5" ry="2.5" style="stroke:#181818;stroke-width:0.5;" width="191.8271" x="204" y="135.1094"/><polygon fill="#F1F1F1" points="378.8271,140.1094,378.8271,154.1094,390.8271,154.1094,390.8271,146.1094,384.8271,140.1094,378.8271,140.1094" style="stroke:#181818;stroke-width:0.5;"/><line style="stroke:#181818;stroke-width:0.5;" x1="384.8271" x2="384.8271" y1="140.1094" y2="146.1094"/><line style="stroke:#181818;stroke-width:0.5;" x1="390.8271" x2="384.8271" y1="146.1094" y2="146.1094"/><text fill="#000000" font-family="sans-serif" font-size="14" lengthAdjust="spacing" textLength="161.8271" x="214" y="162.6426">Minecraft Client (Bedrock)</text></g><!--entity ServerJava--><g class="entity" data-entity="ServerJava" data-source-line="26" data-uid="ent0011" id="entity_ServerJava"><rect fill="#F1F1F1" height="40.6094" rx="2.5" ry="2.5" style="stroke:#181818;stroke-width:0.5;" width="175.4824" x="523" y="423.1094"/><polygon fill="#F1F1F1" points="681.4824,428.1094,681.4824,442.1094,693.4824,442.1094,693.4824,434.1094,687.4824,428.1094,681.4824,428.1094" style="stroke:#181818;stroke-width:0.5;"/><line style="stroke:#181818;stroke-width:0.5;" x1="687.4824" x2="687.4824" y1="428.1094" y2="434.1094"/><line style="stroke:#181818;stroke-width:0.5;" x1="693.4824" x2="687.4824" y1="434.1094" y2="434.1094"/><text fill="#000000" font-family="sans-serif" font-size="14" lengthAdjust="spacing" textLength="145.4824" x="533" y="450.6426">Minecraft Server (Java)</text></g><!--entity RealmsSrv--><g class="entity" data-entity="RealmsSrv" data-source-line="32" data-uid="ent0014" id="entity_RealmsSrv"><rect fill="#F1F1F1" height="40.6094" rx="2.5" ry="2.5" style="stroke:#181818;stroke-width:0.5;" width="221.3857" x="500" y="140.1094"/><polygon fill="#F1F1F1" points="704.3857,145.1094,704.3857,159.1094,716.3857,159.1094,716.3857,151.1094,710.3857,145.1094,704.3857,145.1094" style="stroke:#181818;stroke-width:0.5;"/><line style="stroke:#181818;stroke-width:0.5;" x1="710.3857" x2="710.3857" y1="145.1094" y2="151.1094"/><line style="stroke:#181818;stroke-width:0.5;" x1="716.3857" x2="710.3857" y1="151.1094" y2="151.1094"/><text fill="#000000" font-family="sans-serif" font-size="14" lengthAdjust="spacing" textLength="191.3857" x="510" y="167.6426">Realms-Server (Java/Bedrock)</text></g><!--entity Xbox--><g class="entity" data-entity="Xbox" data-source-line="36" data-uid="ent0015" id="entity_Xbox"><polygon fill="#F1F1F1" points="498.5,268.6094,508.5,258.6094,722.9131,258.6094,722.9131,296.2188,712.9131,306.2188,498.5,306.2188,498.5,268.6094" style="stroke:#181818;stroke-width:0.5;"/><line style="stroke:#181818;stroke-width:0.5;" x1="712.9131" x2="722.9131" y1="268.6094" y2="258.6094"/><line style="stroke:#181818;stroke-width:0.5;" x1="498.5" x2="712.9131" y1="268.6094" y2="268.6094"/><line style="stroke:#181818;stroke-width:0.5;" x1="712.9131" x2="712.9131" y1="268.6094" y2="306.2188"/><text fill="#000000" font-family="sans-serif" font-size="14" lengthAdjust="spacing" textLength="184.4131" x="513.5" y="293.1426">Xbox Live / Microsoft Account</text></g><!--entity Modding--><g class="entity" data-entity="Modding" data-source-line="37" data-uid="ent0016" id="entity_Modding"><rect fill="#F1F1F1" height="40.6094" rx="2.5" ry="2.5" style="stroke:#181818;stroke-width:0.5;" width="176.2754" x="212" y="429.1094"/><polygon fill="#F1F1F1" points="371.2754,434.1094,371.2754,448.1094,383.2754,448.1094,383.2754,440.1094,377.2754,434.1094,371.2754,434.1094" style="stroke:#181818;stroke-width:0.5;"/><line style="stroke:#181818;stroke-width:0.5;" x1="377.2754" x2="377.2754" y1="434.1094" y2="440.1094"/><line style="stroke:#181818;stroke-width:0.5;" x1="383.2754" x2="377.2754" y1="440.1094" y2="440.1094"/><text fill="#000000" font-family="sans-serif" font-size="14" lengthAdjust="spacing" textLength="146.2754" x="222" y="456.6426">Modding (Forge/Fabric)</text></g><!--link ClientJava to ServerJava--><g class="link" data-entity-1="ClientJava" data-entity-2="ServerJava" data-source-line="40" data-uid="lnk17" id="link_ClientJava_ServerJava"><path d="M385.39,361.8594 C477.46,361.8594 611,361.8594 611,361.8594 C611,361.8594 611,392.7594 611,416.9794" fill="none" id="ClientJava-to-ServerJava" style="stroke:#181818;stroke-width:1;"/><polygon fill="#181818" points="611,422.9794,615,413.9794,611,417.9794,607,413.9794,611,422.9794" style="stroke:#181818;stroke-width:1;"/><text fill="#000000" font-family="sans-serif" font-size="13" lengthAdjust="spacing" textLength="41.8945" x="486.76" y="376.3545">TCP/IP</text></g><!--link ClientJava to RealmsSrv--><g class="link" data-entity-1="ClientJava" data-entity-2="RealmsSrv" data-source-line="41" data-uid="lnk18" id="link_ClientJava_RealmsSrv"><path d="M385.23,341.3594 C418.13,341.3594 448,341.3594 448,341.3594 C448,341.3594 448,164.1094 448,164.1094 C448,164.1094 465.09,164.1094 493.86,164.1094" fill="none" id="ClientJava-to-RealmsSrv" style="stroke:#181818;stroke-width:1;"/><polygon fill="#181818" points="499.86,164.1094,490.86,160.1094,494.86,164.1094,490.86,168.1094,499.86,164.1094" style="stroke:#181818;stroke-width:1;"/><text fill="#000000" font-family="sans-serif" font-size="13" lengthAdjust="spacing" textLength="41.8945" x="406" y="272.6845">TCP/IP</text></g><!--link ClientBedrock to RealmsSrv--><g class="link" data-entity-1="ClientBedrock" data-entity-2="RealmsSrv" data-source-line="42" data-uid="lnk19" id="link_ClientBedrock_RealmsSrv"><path d="M396.12,152.1094 C428.98,152.1094 459.99,152.1094 493.9,152.1094" fill="none" id="ClientBedrock-to-RealmsSrv" style="stroke:#181818;stroke-width:1;"/><polygon fill="#181818" points="499.9,152.1094,490.9,148.1094,494.9,152.1094,490.9,156.1094,499.9,152.1094" style="stroke:#181818;stroke-width:1;"/><text fill="#000000" font-family="sans-serif" font-size="13" lengthAdjust="spacing" textLength="41.8945" x="406.01" y="166.6045">TCP/IP</text></g><!--link Launcher to ClientJava--><g class="link" data-entity-1="Launcher" data-entity-2="ClientJava" data-source-line="43" data-uid="lnk20" id="link_Launcher_ClientJava"><path d="M144.39,351.6094 C165.1,351.6094 184.48,351.6094 208.69,351.6094" fill="none" id="Launcher-to-ClientJava" style="stroke:#181818;stroke-width:1;"/><polygon fill="#181818" points="214.69,351.6094,205.69,347.6094,209.69,351.6094,205.69,355.6094,214.69,351.6094" style="stroke:#181818;stroke-width:1;"/><text fill="#000000" font-family="sans-serif" font-size="13" lengthAdjust="spacing" textLength="65.0254" x="113.54" y="366.1045">Install/Start</text></g><!--link ClientJava to Xbox--><g class="link" data-entity-1="ClientJava" data-entity-2="Xbox" data-source-line="44" data-uid="lnk21" id="link_ClientJava_Xbox"><path d="M385.21,351.6094 C443.77,351.6094 511,351.6094 511,351.6094 C511,351.6094 511,332.6394 511,312.7394" fill="none" id="ClientJava-to-Xbox" style="stroke:#181818;stroke-width:1;"/><polygon fill="#181818" points="511,306.7394,507,315.7394,511,311.7394,515,315.7394,511,306.7394" style="stroke:#181818;stroke-width:1;"/><text fill="#000000" font-family="sans-serif" font-size="13" lengthAdjust="spacing" textLength="65.7681" x="404.54" y="366.1045">Anmeldung</text></g><!--link ClientBedrock to Xbox--><g class="link" data-entity-1="ClientBedrock" data-entity-2="Xbox" data-source-line="45" data-uid="lnk22" id="link_ClientBedrock_Xbox"><path d="M392,176.2994 C392,212.2794 392,282.6094 392,282.6094 C392,282.6094 438.72,282.6094 492.37,282.6094" fill="none" id="ClientBedrock-to-Xbox" style="stroke:#181818;stroke-width:1;"/><polygon fill="#181818" points="498.37,282.6094,489.37,278.6094,493.37,282.6094,489.37,286.6094,498.37,282.6094" style="stroke:#181818;stroke-width:1;"/><text fill="#000000" font-family="sans-serif" font-size="13" lengthAdjust="spacing" textLength="65.7681" x="326.03" y="297.1045">Anmeldung</text></g><!--link Modding to ServerJava--><g class="link" data-entity-1="Modding" data-entity-2="ServerJava" data-source-line="46" data-uid="lnk23" id="link_Modding_ServerJava"><path d="M388.15,446.6094 C430.37,446.6094 474.79,446.6094 516.94,446.6094" fill="none" id="Modding-to-ServerJava" style="stroke:#181818;stroke-width:1;stroke-dasharray:7,7;"/><polygon fill="#181818" points="522.94,446.6094,513.94,442.6094,517.94,446.6094,513.94,450.6094,522.94,446.6094" style="stroke:#181818;stroke-width:1;"/><text fill="#000000" font-family="sans-serif" font-size="13" lengthAdjust="spacing" textLength="42.6372" x="412.54" y="461.1045">Plugins</text></g><!--SRC=[ZPDDZzf038Rl-HKMbuBKREuSAcs15Tk55ctwTHqI9rXCPj2C0wNL_lSwNv2mRTMZn-yxVcpFCB56M9F1nAcC8OIlw1X9boRtAQdSgQA0yHmFsfuBD3m90eqYP0kEyXr3IWuJ9ci2loTpK680BVVn-O1W7UziB-5tAhKdCZbaIdiCWZTLFIIJgMJ727FbFAEkgiFOiwE4uSjwDPcAC8IbSkb9EGJnWh4fleLFSI-8RSQNl79CSYlNpe-bWnDwuTUKx10M6gjcnBENuWWhLMO_aJYS8oiIz_Z3yoAAvq_IRdKtZERezsmFuMOs0kMX3PVVu5S0C908KryYX9K4Ba0mkevxfaamf9ewgadjQawg-COaY4RGNQtg0j6y12yTuvCrtiew8rZRBUaSdKAkzNMC0zgDLioPTKNOyZQQ_y9zZwcpoRvFt1uDWHQKeq4FCReZkZ0-otABsXIZpfRMym2faNNpwoJ_96ejlG4s9-q0UonNppCgNSYAPzgMQMDgZWOmQsLKZcbz7oNOaotCyHLHamdxED5WIeqWTiSXrVUj_G4hEjPBeyHPBsyOxfF4bgPPNQK8UgtRDAt-p_Z1kXoZ1xMLJp9f5rYdsa-r9PFADq83uu8C5KfFWklZWZ1yrniLJE7pR1CzRcub5-nRHTlStqJT0wtplJkdy6WyAwsZcAMfstBrEAPmRmhK5VqVYhsIT1EvkxlfQAFBd8mFVWC0]--></g></svg>