<svg xmlns="http://www.w3.org/2000/svg" xmlns:xlink="http://www.w3.org/1999/xlink" contentStyleType="text/css" data-diagram-type="DESCRIPTION" height="911px" preserveAspectRatio="none" style="width:517px;height:911px;background:#FFFFFF;" version="1.1" viewBox="0 0 517 911" width="517px" zoomAndPan="magnify"><title>Minecraft - Anwendungsfalldiagramm (Systemgrenze: Client + Server)</title><defs/><g><g class="title" data-source-line="1"><text fill="#000000" font-family="sans-serif" font-size="14" font-weight="bold" lengthAdjust="spacing" textLength="464.8301" x="19.085" y="24.5332">Minecraft - Anwendungsfalldiagramm (Systemgrenze: Client + Server)</text></g><!--cluster System--><g class="cluster" data-entity="System" data-source-line="12" data-uid="ent0007" id="cluster_System"><rect fill="none" height="798" rx="2.5" ry="2.5" style="stroke:#181818;stroke-width:1;" width="277" x="234" y="45.6094"/><text fill="#000000" font-family="sans-serif" font-size="14" font-weight="bold" lengthAdjust="spacing" textLength="173.8857" x="285.5571" y="62.1426">Minecraft (Client + Server)</text></g><!--entity UCExplore--><g class="entity" data-entity="UCExplore" data-source-line="13" data-uid="ent0008" id="entity_UCExplore"><ellipse cx="372.5489" cy="326.7192" fill="#F1F1F1" rx="66.0489" ry="15.6098" style="stroke:#181818;stroke-width:0.5;"/><text fill="#000000" font-family="sans-serif" font-size="14" lengthAdjust="spacing" textLength="90.2686" x="327.4146" y="332.0238">Welt erkunden</text></g><!--entity UCResource--><g class="entity" data-entity="UCResource" data-source-line="14" data-uid="ent0009" id="entity_UCResource"><ellipse cx="372.7489" cy="100.7592" fill="#F1F1F1" rx="83.7489" ry="19.1498" style="stroke:#181818;stroke-width:0.5;"/><text fill="#000000" font-family="sans-serif" font-size="14" lengthAdjust="spacing" textLength="135.3857" x="305.056" y="106.0638">Ressourcen sammeln</text></g><!--entity UCBuild--><g class="entity" data-entity="UCBuild" data-source-line="15" data-uid="ent0010" id="entity_UCBuild"><ellipse cx="372.262" cy="258.3618" fill="#F1F1F1" rx="74.262" ry="17.2524" style="stroke:#181818;stroke-width:0.5;"/><text fill="#000000" font-family="sans-serif" font-size="14" lengthAdjust="spacing" textLength="112.0752" x="316.2244" y="263.6665">Bauen / Gestalten</text></g><!--entity UCCraft--><g class="entity" data-entity="UCCraft" data-source-line="16" data-uid="ent0011" id="entity_UCCraft"><ellipse cx="372.6583" cy="180.5345" fill="#F1F1F1" rx="97.6583" ry="25.4251" style="stroke:#181818;stroke-width:0.5;"/><text fill="#000000" font-family="sans-serif" font-size="14" lengthAdjust="spacing" textLength="148.6611" x="298.3277" y="180.7588">Gegenst&#228;nde herstellen</text><text fill="#000000" font-family="sans-serif" font-size="14" lengthAdjust="spacing" textLength="58.3447" x="343.4859" y="198.3681">(Crafting)</text></g><!--entity UCInteract--><g class="entity" data-entity="UCInteract" data-source-line="17" data-uid="ent0012" id="entity_UCInteract"><ellipse cx="372.5874" cy="403.6069" fill="#F1F1F1" rx="102.0874" ry="25.9975" style="stroke:#181818;stroke-width:0.5;"/><text fill="#000000" font-family="sans-serif" font-size="14" lengthAdjust="spacing" textLength="151.7441" x="296.7153" y="402.9245">Mit Spielern interagieren</text><text fill="#000000" font-family="sans-serif" font-size="14" lengthAdjust="spacing" textLength="91.041" x="327.0668" y="420.5339">(Chat, Handel)</text></g><!--entity UCJoin--><g class="entity" data-entity="UCJoin" data-source-line="18" data-uid="ent0013" id="entity_UCJoin"><ellipse cx="372.5943" cy="487.4282" fill="#F1F1F1" rx="99.5943" ry="22.3189" style="stroke:#181818;stroke-width:0.5;"/><text fill="#000000" font-family="sans-serif" font-size="14" lengthAdjust="spacing" textLength="171.958" x="286.6153" y="492.7329">Multiplayer-Server beitreten</text></g><!--entity UCLogin--><g class="entity" data-entity="UCLogin" data-source-line="19" data-uid="ent0014" id="entity_UCLogin"><ellipse cx="372.5767" cy="722.5611" fill="#F1F1F1" rx="47.5767" ry="15.4517" style="stroke:#181818;stroke-width:0.5;"/><text fill="#000000" font-family="sans-serif" font-size="14" lengthAdjust="spacing" textLength="63.041" x="341.0562" y="727.8658">Anmelden</text></g><!--entity UCDownload--><g class="entity" data-entity="UCDownload" data-source-line="20" data-uid="ent0015" id="entity_UCDownload"><ellipse cx="372.3584" cy="644.6881" fill="#F1F1F1" rx="108.8584" ry="27.0787" style="stroke:#181818;stroke-width:0.5;"/><text fill="#000000" font-family="sans-serif" font-size="14" lengthAdjust="spacing" textLength="132.3232" x="306.1968" y="640.001">Inhalte herunterladen</text><text fill="#000000" font-family="sans-serif" font-size="14" lengthAdjust="spacing" textLength="154.834" x="294.9414" y="657.6104">(Skins, Welten, Add-ons)</text></g><!--entity UCEdu--><g class="entity" data-entity="UCEdu" data-source-line="21" data-uid="ent0016" id="entity_UCEdu"><ellipse cx="372.6248" cy="800.5343" fill="#F1F1F1" rx="122.6248" ry="26.925" style="stroke:#181818;stroke-width:0.5;"/><text fill="#000000" font-family="sans-serif" font-size="14" lengthAdjust="spacing" textLength="204.668" x="270.2908" y="802.2536">Unterrichtsfunktionen verwenden</text><text fill="#000000" font-family="sans-serif" font-size="14" lengthAdjust="spacing" textLength="71.5928" x="336.8284" y="819.863">(Education)</text></g><!--entity UCModAPI--><g class="entity" data-entity="UCModAPI" data-source-line="22" data-uid="ent0017" id="entity_UCModAPI"><ellipse cx="372.708" cy="563.551" fill="#F1F1F1" rx="80.208" ry="18.4416" style="stroke:#181818;stroke-width:0.5;"/><text fill="#000000" font-family="sans-serif" font-size="14" lengthAdjust="spacing" textLength="126.8545" x="309.2808" y="568.8557">Modding-API nutzen</text></g><!--entity Spieler--><g class="entity" data-entity="Spieler" data-source-line="6" data-uid="ent0002" id="entity_Spieler"><ellipse cx="97.7896" cy="350.1094" fill="#F1F1F1" rx="8" ry="8" style="stroke:#181818;stroke-width:0.5;"/><path d="M97.7896,358.1094 L97.7896,385.1094 M84.7896,366.1094 L110.7896,366.1094 M97.7896,385.1094 L84.7896,400.1094 M97.7896,385.1094 L110.7896,400.1094" fill="none" style="stroke:#181818;stroke-width:0.5;"/><text fill="#000000" font-family="sans-serif" font-size="14" lengthAdjust="spacing" textLength="43.5791" x="76" y="416.1426">Spieler</text></g><!--entity Lehrperson--><g class="entity" data-entity="Lehrperson" data-source-line="7" data-uid="ent0003" id="entity_Lehrperson"><ellipse cx="97.9136" cy="837.1094" fill="#F1F1F1" rx="8" ry="8" style="stroke:#181818;stroke-width:0.5;"/><path d="M97.9136,845.1094 L97.9136,872.1094 M84.9136,853.1094 L110.9136,853.1094 M97.9136,872.1094 L84.9136,887.1094 M97.9136,872.1094 L110.9136,887.1094" fill="none" style="stroke:#181818;stroke-width:0.5;"/><text fill="#000000" font-family="sans-serif" font-size="14" lengthAdjust="spacing" textLength="70.8271" x="62.5" y="903.1426">Lehrperson</text></g><!--entity ModEntwickler--><g class="entity" data-entity="ModEntwickler" data-source-line="8" data-uid="ent0004" id="entity_ModEntwickler"><ellipse cx="97.8447" cy="463.1094" fill="#F1F1F1" rx="8" ry="8" style="stroke:#181818;stroke-width:0.5;"/><path d="M97.8447,471.1094 L97.8447,498.1094 M84.8447,479.1094 L110.8447,479.1094 M97.8447,498.1094 L84.8447,513.1094 M97.8447,498.1094 L110.8447,513.1094" fill="none" style="stroke:#181818;stroke-width:0.5;"/><text fill="#000000" font-family="sans-serif" font-size="14" lengthAdjust="spacing" textLength="95.6895" x="50" y="529.1426">Mod-Entwickler</text></g><!--entity Auth--><g class="entity" data-entity="Auth" data-source-line="9" data-uid="ent0005" id="entity_Auth"><ellipse cx="97.8618" cy="706.6094" fill="#F1F1F1" rx="8" ry="8" style="stroke:#181818;stroke-width:0.5;"/><path d="M97.8618,714.6094 L97.8618,741.6094 M84.8618,722.6094 L110.8618,722.6094 M97.8618,741.6094 L84.8618,756.6094 M97.8618,741.6094 L110.8618,756.6094" fill="none" style="stroke:#181818;stroke-width:0.5;"/><text fill="#000000" font-family="sans-serif" font-size="14" lengthAdjust="spacing" textLength="158.7236" x="18.5" y="772.6426">&#171;System&#187; Microsoft/Xbox</text><text fill="#000000" font-family="sans-serif" font-size="14" lengthAdjust="spacing" textLength="53.6826" x="18.5" y="790.252">Services</text></g><!--entity Market--><g class="entity" data-entity="Market" data-source-line="10" data-uid="ent0006" id="entity_Market"><ellipse cx="97.8135" cy="576.6094" fill="#F1F1F1" rx="8" ry="8" style="stroke:#181818;stroke-width:0.5;"/><path d="M97.8135,584.6094 L97.8135,611.6094 M84.8135,592.6094 L110.8135,592.6094 M97.8135,611.6094 L84.8135,626.6094 M97.8135,611.6094 L110.8135,626.6094" fill="none" style="stroke:#181818;stroke-width:0.5;"/><text fill="#000000" font-family="sans-serif" font-size="14" lengthAdjust="spacing" textLength="183.627" x="6" y="642.6426">&#171;System&#187; Ressourcenserver/</text><text fill="#000000" font-family="sans-serif" font-size="14" lengthAdjust="spacing" textLength="76.2549" x="6" y="660.252">Marketplace</text></g><!--link Spieler to UCExplore--><g class="link" data-entity-1="Spieler" data-entity-2="UCExplore" data-source-line="25" data-uid="lnk18" id="link_Spieler_UCExplore"><path d="M120.38,376.3694 C163.42,367.8394 255.6044,349.5755 315.6644,337.6755" fill="none" id="Spieler-to-UCExplore" style="stroke:#181818;stroke-width:1;"/><polygon fill="#181818" points="321.55,336.5094,311.9442,334.3349,316.6453,337.4812,313.499,342.1823,321.55,336.5094" style="stroke:#181818;stroke-width:1;"/></g><!--link Spieler to UCResource--><g class="link" data-entity-1="Spieler" data-entity-2="UCResource" data-source-line="26" data-uid="lnk19" id="link_Spieler_UCResource"><path d="M108.68,341.3194 C124.1,287.1194 159.54,190.1694 226,137.6094 C245.63,122.0894 265.1306,114.3006 289.1806,109.0006" fill="none" id="Spieler-to-UCResource" style="stroke:#181818;stroke-width:1;"/><polygon fill="#181818" points="295.04,107.7094,285.39,105.74,290.1572,108.7854,287.1117,113.5525,295.04,107.7094" style="stroke:#181818;stroke-width:1;"/></g><!--link Spieler to UCBuild--><g class="link" data-entity-1="Spieler" data-entity-2="UCBuild" data-source-line="27" data-uid="lnk20" id="link_Spieler_UCBuild"><path d="M120.02,362.5894 C144.1,342.8594 185.46,311.6294 226,293.6094 C252.47,281.8394 277.6027,274.8967 304.1827,269.4367" fill="none" id="Spieler-to-UCBuild" style="stroke:#181818;stroke-width:1;"/><polygon fill="#181818" points="310.06,268.2294,300.4392,266.1221,305.1623,269.2355,302.0489,273.9585,310.06,268.2294" style="stroke:#181818;stroke-width:1;"/></g><!--link Spieler to UCCraft--><g class="link" data-entity-1="Spieler" data-entity-2="UCCraft" data-source-line="28" data-uid="lnk21" id="link_Spieler_UCCraft"><path d="M120.13,343.0694 C142.12,307.3094 179.8,254.4794 226,223.6094 C245.49,210.5894 263.2515,203.0701 285.6515,196.6601" fill="none" id="Spieler-to-UCCraft" style="stroke:#181818;stroke-width:1;"/><polygon fill="#181818" points="291.42,195.0094,281.6668,193.6398,286.6129,196.385,283.8678,201.3311,291.42,195.0094" style="stroke:#181818;stroke-width:1;"/></g><!--link Spieler to UCInteract--><g class="link" data-entity-1="Spieler" data-entity-2="UCInteract" data-source-line="29" data-uid="lnk22" id="link_Spieler_UCInteract"><path d="M120.38,382.4094 C153.57,385.2194 213.5012,390.2753 269.4812,394.9953" fill="none" id="Spieler-to-UCInteract" style="stroke:#181818;stroke-width:1;"/><polygon fill="#181818" points="275.46,395.4994,266.8279,390.7574,270.4777,395.0793,266.1558,398.7291,275.46,395.4994" style="stroke:#181818;stroke-width:1;"/></g><!--link Spieler to UCJoin--><g class="link" data-entity-1="Spieler" data-entity-2="UCJoin" data-source-line="30" data-uid="lnk23" id="link_Spieler_UCJoin"><path d="M120.39,393.4594 C145.13,407.8994 187.42,431.3294 226,446.6094 C250.65,456.3694 272.6959,463.2511 297.3859,469.8911" fill="none" id="Spieler-to-UCJoin" style="stroke:#181818;stroke-width:1;"/><polygon fill="#181818" points="303.18,471.4494,295.5276,465.2493,298.3516,470.1508,293.45,472.9748,303.18,471.4494" style="stroke:#181818;stroke-width:1;"/></g><!--link Spieler to UCLogin--><g class="link" data-entity-1="Spieler" data-entity-2="UCLogin" data-source-line="31" data-uid="lnk24" id="link_Spieler_UCLogin"><path d="M120.13,387.5494 C141.46,395.7294 173.52,411.4794 190,436.6094 C252.27,531.5994 149.04,606.0894 226,689.6094 C250.92,716.6594 286.9731,723.6556 319.4731,724.7056" fill="none" id="Spieler-to-UCLogin" style="stroke:#181818;stroke-width:1;"/><polygon fill="#181818" points="325.47,724.8994,316.6039,720.6108,320.4726,724.7379,316.3455,728.6067,325.47,724.8994" style="stroke:#181818;stroke-width:1;"/></g><!--link Spieler to UCDownload--><g class="link" data-entity-1="Spieler" data-entity-2="UCDownload" data-source-line="32" data-uid="lnk25" id="link_Spieler_UCDownload"><path d="M120.14,387.9694 C141.16,396.3994 172.69,412.2694 190,436.6094 C233,497.0694 175.75,545.0294 226,599.6094 C239.7,614.4894 252.5456,622.5208 271.7556,629.2308" fill="none" id="Spieler-to-UCDownload" style="stroke:#181818;stroke-width:1;"/><polygon fill="#181818" points="277.42,631.2094,270.2425,624.4653,272.6997,629.5606,267.6044,632.0178,277.42,631.2094" style="stroke:#181818;stroke-width:1;"/></g><!--link Spieler to UCModAPI--><g class="link" data-entity-1="Spieler" data-entity-2="UCModAPI" data-source-line="33" data-uid="lnk26" id="link_Spieler_UCModAPI"><path d="M120.13,388.8994 C140.53,397.8794 171.05,414.0094 190,436.6094 C217.95,469.9294 193.25,498.9894 226,527.6094 C245.1,544.3094 264.8812,552.3096 289.3312,557.2996" fill="none" id="Spieler-to-UCModAPI" style="stroke:#181818;stroke-width:1;"/><polygon fill="#181818" points="295.21,558.4994,287.1916,552.7805,290.311,557.4995,285.5919,560.6189,295.21,558.4994" style="stroke:#181818;stroke-width:1;"/></g><!--link Lehrperson to UCEdu--><g class="link" data-entity-1="Lehrperson" data-entity-2="UCEdu" data-source-line="35" data-uid="lnk27" id="link_Lehrperson_UCEdu"><path d="M133.51,859.1194 C172.61,849.5094 231.8435,834.9417 284.0735,822.1017" fill="none" id="Lehrperson-to-UCEdu" style="stroke:#181818;stroke-width:1;"/><polygon fill="#181818" points="289.9,820.6694,280.2053,818.9336,285.0446,821.863,282.1151,826.7023,289.9,820.6694" style="stroke:#181818;stroke-width:1;"/></g><!--link Lehrperson to UCLogin--><g class="link" data-entity-1="Lehrperson" data-entity-2="UCLogin" data-source-line="36" data-uid="lnk28" id="link_Lehrperson_UCLogin"><path d="M133.85,850.3794 C151.91,840.3694 173.56,826.5894 190,810.6094 C210.68,790.5094 202.29,773.0394 226,756.6094 C255.21,736.3594 288.856,728.706 319.376,725.346" fill="none" id="Lehrperson-to-UCLogin" style="stroke:#181818;stroke-width:1;"/><polygon fill="#181818" points="325.34,724.6894,315.9563,721.6983,320.37,725.2365,316.8318,729.6502,325.34,724.6894" style="stroke:#181818;stroke-width:1;"/></g><!--link ModEntwickler to UCModAPI--><g class="link" data-entity-1="ModEntwickler" data-entity-2="UCModAPI" data-source-line="38" data-uid="lnk29" id="link_ModEntwickler_UCModAPI"><path d="M146.29,506.4994 C170.16,512.9494 199.59,520.8094 226,527.6094 C255.86,535.2994 283.4224,542.1613 310.6824,548.8413" fill="none" id="ModEntwickler-to-UCModAPI" style="stroke:#181818;stroke-width:1;"/><polygon fill="#181818" points="316.51,550.2694,308.7207,544.2423,311.6537,549.0793,306.8166,552.0124,316.51,550.2694" style="stroke:#181818;stroke-width:1;"/></g><!--link Auth to UCLogin--><g class="link" data-entity-1="Auth" data-entity-2="UCLogin" data-source-line="40" data-uid="lnk30" id="link_Auth_UCLogin"><path d="M177.82,738.9594 C226.07,734.8794 280.1213,730.325 320.4413,726.915" fill="none" id="Auth-to-UCLogin" style="stroke:#181818;stroke-width:1;"/><polygon fill="#181818" points="326.42,726.4094,317.1149,723.1821,321.4378,726.8307,317.7891,731.1536,326.42,726.4094" style="stroke:#181818;stroke-width:1;"/></g><!--link Market to UCDownload--><g class="link" data-entity-1="Market" data-entity-2="UCDownload" data-source-line="41" data-uid="lnk31" id="link_Market_UCDownload"><path d="M190.12,625.3094 C216.42,628.1094 239.2837,630.5347 266.0737,633.3847" fill="none" id="Market-to-UCDownload" style="stroke:#181818;stroke-width:1;"/><polygon fill="#181818" points="272.04,634.0194,263.5136,629.0897,267.0681,633.4904,262.6674,637.0449,272.04,634.0194" style="stroke:#181818;stroke-width:1;"/></g><!--link UCJoin to UCLogin--><g class="link" data-entity-1="UCJoin" data-entity-2="UCLogin" data-source-line="43" data-uid="lnk32" id="link_UCJoin_UCLogin"><path d="M277.25,494.4794 C247.73,502.2194 219.83,517.0994 208,545.1094 C186.03,597.0994 186.03,620.1194 208,672.1094 C226.2,715.1794 277.6209,724.3577 319.5109,725.0677" fill="none" id="UCJoin-to-UCLogin" style="stroke:#181818;stroke-width:1;stroke-dasharray:7,7;"/><polygon fill="#181818" points="325.51,725.1694,316.5791,721.0174,320.5107,725.0846,316.4435,729.0163,325.51,725.1694" style="stroke:#181818;stroke-width:1;"/></g><!--link UCDownload to UCLogin--><g class="link" data-entity-1="UCDownload" data-entity-2="UCLogin" data-source-line="44" data-uid="lnk33" id="link_UCDownload_UCLogin"><path d="M372.5,671.9394 C372.5,683.6494 372.5,689.3594 372.5,701.0694" fill="none" id="UCDownload-to-UCLogin" style="stroke:#181818;stroke-width:1;stroke-dasharray:7,7;"/><polygon fill="#181818" points="372.5,707.0694,376.5,698.0694,372.5,702.0694,368.5,698.0694,372.5,707.0694" style="stroke:#181818;stroke-width:1;"/></g><!--link UCCraft to UCResource--><g class="link" data-entity-1="UCCraft" data-entity-2="UCResource" data-source-line="45" data-uid="lnk34" id="link_UCCraft_UCResource"><path d="M372.5,154.9894 C372.5,143.2294 372.5,137.4794 372.5,125.7294" fill="none" id="UCCraft-to-UCResource" style="stroke:#181818;stroke-width:1;stroke-dasharray:7,7;"/><polygon fill="#181818" points="372.5,119.7294,368.5,128.7294,372.5,124.7294,376.5,128.7294,372.5,119.7294" style="stroke:#181818;stroke-width:1;"/></g><!--link UCBuild to UCResource--><g class="link" data-entity-1="UCBuild" data-entity-2="UCResource" data-source-line="46" data-uid="lnk35" id="link_UCBuild_UCResource"><path d="M297.93,258.4394 C261.51,253.7394 222.47,240.3494 208,206.1094 C195.75,177.1094 198.52,152.9594 226,137.6094 C249.02,124.7494 270.6828,117.5905 295.6228,112.0505" fill="none" id="UCBuild-to-UCResource" style="stroke:#181818;stroke-width:1;stroke-dasharray:7,7;"/><polygon fill="#181818" points="301.48,110.7494,291.8268,108.7962,296.599,111.8336,293.5615,116.6058,301.48,110.7494" style="stroke:#181818;stroke-width:1;"/></g><!--SRC=[RLD1Rjim4Bpp5GkV7DIgxqLWm76Dr4KC53M2zf0B8wubmlJI85TragA_wK_wiQv4opBTtiJPsU7EhCYM7SBQ4fP1RnaAcDCHoJHKnQrspbXT1RtVmtZp6XdtLK1wmm-mS1Q9uHriCFp0SAEKGsbd3y5MDOEn0KksdbJSMJfeqO1OQ-EFbYeGvOXAwP9zWD7cOD5X686ESFhkImzOXmE6wAch3iUUiFQcM18VRRdh9GGQa9vtUvlcdyt4R1byz5kUVd_sBq_KEh0bngvvtd3zdvwl6ADlGeaKEx_J9rhhi4C-E5rYkhOxAzNwrbH9ggCXrl5rNibi9my_5K0JiTHHUhwXOy2mQyXWClsuMBuSd0zuIHi6WYZhGTTpfT3Xb-GxtGXl2lSOMJi-wzurrfbBuZrMuf3__9RBePQW6Pr3UgBnehKXgxivjNRdozQrvNvv19OOWwuiXjHSQvx09osghXTOTPGorsWSMqdq5KEHSe9dj1nm6FcpjtJPCYVnFYJruAkylgAwTToQQTeRdJRTI1lvA-C4shIH9Z0tfl0K- -4- -YCvhxDi7jlsOCkQuxQXNVjlIwWoO_jSEisbQKhTuhsC09azRun4MCo_h80QVZjFBGN1r2-bJWb2KSmkzfwZvmtdS5fcZgKjvTWv-1pkWisX56QEdPF9uPC3DJpGte94y0-OX5NsKA-4sdUOiTFpkfv2fS7X_K0SgZdQPP6WSuAdrAxGlm00]--></g></svg>