<svg xmlns="http://www.w3.org/2000/svg" xmlns:xlink="http://www.w3.org/1999/xlink" contentStyleType="text/css" data-diagram-type="DESCRIPTION" height="808px" preserveAspectRatio="none" style="width:486px;height:808px;background:#FFFFFF;" version="1.1" viewBox="0 0 486 808" width="486px" zoomAndPan="magnify"><title>Minecraft - Fachlicher Kontext</title><defs/><g><g class="title" data-source-line="1"><text fill="#000000" font-family="sans-serif" font-size="14" font-weight="bold" lengthAdjust="spacing" textLength="200.7031" x="135.7783" y="24.5332">Minecraft - Fachlicher Kontext</text></g><!--entity Spieler--><g class="entity" data-entity="Spieler" data-source-line="19" data-uid="ent0002" id="entity_Spieler"><ellipse cx="236.6377" cy="52.6094" fill="#F1F1F1" rx="8" ry="8" style="stroke:#181818;stroke-width:0.5;"/><path d="M236.6377,60.6094 L236.6377,87.6094 M223.6377,68.6094 L249.6377,68.6094 M236.6377,87.6094 L223.6377,102.6094 M236.6377,87.6094 L249.6377,102.6094" fill="none" style="stroke:#181818;stroke-width:0.5;"/><text fill="#000000" font-family="sans-serif" font-size="14" lengthAdjust="spacing" textLength="62.2754" x="205.5" y="118.6426">Spielende</text></g><!--entity Admin--><g class="entity" data-entity="Admin" data-source-line="20" data-uid="ent0003" id="entity_Admin"><ellipse cx="236.5376" cy="278.6094" fill="#F1F1F1" rx="8" ry="8" style="stroke:#181818;stroke-width:0.5;"/><path d="M236.5376,286.6094 L236.5376,313.6094 M223.5376,294.6094 L249.5376,294.6094 M236.5376,313.6094 L223.5376,328.6094 M236.5376,313.6094 L249.5376,328.6094" fill="none" style="stroke:#181818;stroke-width:0.5;"/><text fill="#000000" font-family="sans-serif" font-size="14" lengthAdjust="spacing" textLength="203.0752" x="135" y="344.6426">Server-Administrationen / Hoster</text></g><!--entity Dev--><g class="entity" data-entity="Dev" data-source-line="21" data-uid="ent0004" id="entity_Dev"><ellipse cx="236.4722" cy="165.6094" fill="#F1F1F1" rx="8" ry="8" style="stroke:#181818;stroke-width:0.5;"/><path d="M236.4722,173.6094 L236.4722,200.6094 M223.4722,181.6094 L249.4722,181.6094 M236.4722,200.6094 L223.4722,215.6094 M236.4722,200.6094 L249.4722,215.6094" fill="none" style="stroke:#181818;stroke-width:0.5;"/><text fill="#000000" font-family="sans-serif" font-size="14" lengthAdjust="spacing" textLength="157.9443" x="157.5" y="231.6426">Community-Entwickelnde</text></g><!--entity Ops--><g class="entity" data-entity="Ops" data-source-line="22" data-uid="ent0005" id="entity_Ops"><ellipse cx="236.5894" cy="391.6094" fill="#F1F1F1" rx="8" ry="8" style="stroke:#181818;stroke-width:0.5;"/><path d="M236.5894,399.6094 L236.5894,426.6094 M223.5894,407.6094 L249.5894,407.6094 M236.5894,426.6094 L223.5894,441.6094 M236.5894,426.6094 L249.5894,441.6094" fill="none" style="stroke:#181818;stroke-width:0.5;"/><text fill="#000000" font-family="sans-serif" font-size="14" lengthAdjust="spacing" textLength="178.1787" x="147.5" y="457.6426">Betrieb / Support (Hersteller)</text></g><!--entity System--><g class="entity" data-entity="System" data-source-line="25" data-uid="ent0006" id="entity_System"><rect fill="#F1F1F1" height="125.6563" rx="7.5" ry="7.5" style="stroke:#000000;stroke-width:2;" width="262.751" x="105" y="496.1094"/><text fill="#000000" font-family="sans-serif" font-size="14" lengthAdjust="spacing" textLength="3.8896" x="115" y="520.6426">&#160;</text><text fill="#000000" font-family="sans-serif" font-size="14" lengthAdjust="spacing" textLength="3.8896" x="115" y="538.252">&#160;</text><text fill="#000000" font-family="sans-serif" font-size="14" lengthAdjust="spacing" textLength="137.7031" x="130.5586" y="555.8613">Minecraft-Spielsystem</text><text fill="#000000" font-family="sans-serif" font-size="14" lengthAdjust="spacing" textLength="211.6338" x="130.5586" y="573.4707">(Launcher, Client, Server/Realms)</text><text fill="#000000" font-family="sans-serif" font-size="14" lengthAdjust="spacing" textLength="3.8896" x="115" y="591.0801">&#160;</text><text fill="#000000" font-family="sans-serif" font-size="14" lengthAdjust="spacing" textLength="3.8896" x="115" y="608.6895">&#160;</text></g><!--entity Commerce--><g class="entity" data-entity="Commerce" data-source-line="28" data-uid="ent0007" id="entity_Commerce"><rect fill="#F1F1F1" height="55.2188" rx="2.5" ry="2.5" style="stroke:#181818;stroke-width:0.5;" width="197.4268" x="138" y="747.6094"/><text fill="#000000" font-family="sans-serif" font-size="14" lengthAdjust="spacing" textLength="177.4268" x="148" y="772.1426">Zahlungsdienstleister / Store</text><text fill="#000000" font-family="sans-serif" font-size="14" lengthAdjust="spacing" textLength="138.4551" x="148" y="789.752">(Microsoft Commerce)</text></g><!--entity Identity--><g class="entity" data-entity="Identity" data-source-line="29" data-uid="ent0008" id="entity_Identity"><rect fill="#F1F1F1" height="55.2188" rx="2.5" ry="2.5" style="stroke:#181818;stroke-width:0.5;" width="140.5859" x="166" y="657.6094"/><text fill="#000000" font-family="sans-serif" font-size="14" lengthAdjust="spacing" textLength="101.958" x="176" y="682.1426">Identitaetsdienst</text><text fill="#000000" font-family="sans-serif" font-size="14" lengthAdjust="spacing" textLength="120.5859" x="176" y="699.752">(Microsoft Account)</text></g><!--link Spieler to System--><g class="link" data-entity-1="Spieler" data-entity-2="System" data-source-line="32" data-uid="lnk9" id="link_Spieler_System"><path d="M267.72,83.1094 C302.23,83.1094 353,83.1094 353,83.1094 C353,83.1094 353,360.4194 353,489.8994" fill="none" id="Spieler-to-System" style="stroke:#181818;stroke-width:1;"/><polygon fill="#181818" points="353,495.8994,357,486.8994,353,490.8994,349,486.8994,353,495.8994" style="stroke:#181818;stroke-width:1;"/><text fill="#000000" font-family="sans-serif" font-size="13" lengthAdjust="spacing" textLength="99.7344" x="354" y="261.3645">Spielen, Chatten,</text><text fill="#000000" font-family="sans-serif" font-size="13" lengthAdjust="spacing" textLength="81.6753" x="363.0295" y="277.7161">Inhalte nutzen</text></g><!--link Dev to System--><g class="link" data-entity-1="Dev" data-entity-2="System" data-source-line="33" data-uid="lnk10" id="link_Dev_System"><path d="M157.18,196.1094 C136.55,196.1094 120,196.1094 120,196.1094 C120,196.1094 120,385.8794 120,489.8794" fill="none" id="Dev-to-System" style="stroke:#181818;stroke-width:1;"/><polygon fill="#181818" points="120,495.8794,124,486.8794,120,490.8794,116,486.8794,120,495.8794" style="stroke:#181818;stroke-width:1;"/><text fill="#000000" font-family="sans-serif" font-size="13" lengthAdjust="spacing" textLength="112.7407" x="7" y="341.8945">Inhalte bereitstellen</text><text fill="#000000" font-family="sans-serif" font-size="13" lengthAdjust="spacing" textLength="105.479" x="10.6309" y="358.2461">(Mods/Datapacks)</text></g><!--link Admin to System--><g class="link" data-entity-1="Admin" data-entity-2="System" data-source-line="34" data-uid="lnk11" id="link_Admin_System"><path d="M332,348.1694 C332,387.7194 332,443.5194 332,490.0194" fill="none" id="Admin-to-System" style="stroke:#181818;stroke-width:1;"/><polygon fill="#181818" points="332,496.0194,336,487.0194,332,491.0194,328,487.0194,332,496.0194" style="stroke:#181818;stroke-width:1;"/><text fill="#000000" font-family="sans-serif" font-size="13" lengthAdjust="spacing" textLength="130.7744" x="340.2427" y="436.5945">Mehrspieler verwalten,</text><text fill="#000000" font-family="sans-serif" font-size="13" lengthAdjust="spacing" textLength="145.2598" x="333" y="452.9461">Moderation/Konfiguration</text></g><!--link Ops to System--><g class="link" data-entity-1="Ops" data-entity-2="System" data-source-line="35" data-uid="lnk12" id="link_Ops_System"><path d="M237,461.3694 C237,472.1994 237,478.2294 237,490.0494" fill="none" id="Ops-to-System" style="stroke:#181818;stroke-width:1;"/><polygon fill="#181818" points="237,496.0494,241,487.0494,237,491.0494,233,487.0494,237,496.0494" style="stroke:#181818;stroke-width:1;"/><text fill="#000000" font-family="sans-serif" font-size="13" lengthAdjust="spacing" textLength="149.5889" x="87" y="475.2045">Betrieb, Support, Updates</text></g><!--link System to Commerce--><g class="link" data-entity-1="System" data-entity-2="Commerce" data-source-line="37" data-uid="lnk13" id="link_System_Commerce"><path d="M152,622.1694 C152,663.7594 152,710.1694 152,741.5894" fill="none" id="System-to-Commerce" style="stroke:#181818;stroke-width:1;"/><polygon fill="#181818" points="152,747.5894,156,738.5894,152,742.5894,148,738.5894,152,747.5894" style="stroke:#181818;stroke-width:1;"/><text fill="#000000" font-family="sans-serif" font-size="13" lengthAdjust="spacing" textLength="117.7935" x="34" y="699.3745">Zahlungsabwicklung</text><text fill="#000000" font-family="sans-serif" font-size="13" lengthAdjust="spacing" textLength="86.7153" x="49.5391" y="715.7261">(Kaeufe, Abos)</text></g><!--link System to Identity--><g class="link" data-entity-1="System" data-entity-2="Identity" data-source-line="38" data-uid="lnk14" id="link_System_Identity"><path d="M237,622.4794 C237,634.7394 237,640.9694 237,651.3394" fill="none" id="System-to-Identity" style="stroke:#181818;stroke-width:1;"/><polygon fill="#181818" points="237,657.3394,241,648.3394,237,652.3394,233,648.3394,237,657.3394" style="stroke:#181818;stroke-width:1;"/><text fill="#000000" font-family="sans-serif" font-size="13" lengthAdjust="spacing" textLength="109.1353" x="238" y="637.4045">Konten &amp; Lizenzen</text><text fill="#000000" font-family="sans-serif" font-size="13" lengthAdjust="spacing" textLength="74.4263" x="255.3545" y="653.7561">(Anmeldung)</text></g><!--SRC=[RLJ1QkCm4BtxAuOUTXE82RkmbwKKahIbfSqMclIov2BRaqX47Xbft3PTzjzt9DjfkjGd2SrxUlFcoMpO8YmDOUdLbY67QrLgQqgD7kuSCRvobeMzeKPvLKFfwiOH4g_u842F9IlQMJmfiKB6XmR1UTRkv21eLRaNGplOAXimioWNiWDlTfgXCf7CECgohx1YzEWY2-LhaG2g3OL5gf0oRIg4S2n8vGVPro2QdvtNM4ZL-xL7ZV0d0vWxNw5VEEly-Nb8k8iBAAmgzyVJjJRbdZ24auhlSlheMgeMpXEUOh_zoFv64Kka8BRHzD5PaGgcXgTwYxRALCdEmzcgCPXwE0CLeDlvuw5eHv_FgjgG2UnLj49Ofd3ZOhC9aqu7nCBLTKk63_aLyOieHZjmN-BpK3L7zWOBuLcrJICZWT4DUc4KZNwSgX-QS6AYoBvs-pR0Q1vD4KjUnzcxXsSRsX38TynCdZhfxEYEHlUgfPYW2IoiaR1Ce6jl-eZArc4SYn9FvqHtyRkbKStLgpHDE96iz7c4Nx8gbE-g44PE4y8QIqrcdryYAsF31wc_bROjxK8b6eBat4GZenFY36vej3IbTy592gENw4li31bsfrot4Zqsh91xkW_uMLbADhY3zwM7sCOStmng4I6ZLEqslQvy-k1tIgQSPXpoAyahPdqU84_F8RyORFdP9uN4JAsOPR6XMzBACWAr_2PXbtb_WXkA2dagXhkHKvJjgZ2zLAmQcQyubbBr2Nw9seTUbGpl9PB5omMFNJwdyeVOcbtRxJ89qYSqVG8dGm0dyDHKYb52rzSSCOFnWXfcfueOxRWKvNSAswraObOuqVq_Ul1TqEdFHV05xetuyvRQdb4jZr68nja_]--></g></svg>