<svg xmlns="http://www.w3.org/2000/svg" xmlns:xlink="http://www.w3.org/1999/xlink" contentStyleType="text/css" data-diagram-type="DESCRIPTION" height="720px" preserveAspectRatio="none" style="width:487px;height:720px;background:#FFFFFF;" version="1.1" viewBox="0 0 487 720" width="487px" zoomAndPan="magnify"><title>Minecraft</title><defs/><g><g class="title" data-source-line="1"><text fill="#000000" font-family="sans-serif" font-size="14" font-weight="bold" lengthAdjust="spacing" textLength="62.2344" x="205.7532" y="24.5332">Minecraft</text></g><!--entity Spieler--><g class="entity" data-entity="Spieler" data-source-line="9" data-uid="ent0002" id="entity_Spieler"><ellipse cx="246.6377" cy="52.6094" fill="#F1F1F1" rx="8" ry="8" style="stroke:#181818;stroke-width:0.5;"/><path d="M246.6377,60.6094 L246.6377,87.6094 M233.6377,68.6094 L259.6377,68.6094 M246.6377,87.6094 L233.6377,102.6094 M246.6377,87.6094 L259.6377,102.6094" fill="none" style="stroke:#181818;stroke-width:0.5;"/><text fill="#000000" font-family="sans-serif" font-size="14" lengthAdjust="spacing" textLength="62.2754" x="215.5" y="118.6426">Spielende</text></g><!--entity Admin--><g class="entity" data-entity="Admin" data-source-line="10" data-uid="ent0003" id="entity_Admin"><ellipse cx="246.5376" cy="278.6094" fill="#F1F1F1" rx="8" ry="8" style="stroke:#181818;stroke-width:0.5;"/><path d="M246.5376,286.6094 L246.5376,313.6094 M233.5376,294.6094 L259.5376,294.6094 M246.5376,313.6094 L233.5376,328.6094 M246.5376,313.6094 L259.5376,328.6094" fill="none" style="stroke:#181818;stroke-width:0.5;"/><text fill="#000000" font-family="sans-serif" font-size="14" lengthAdjust="spacing" textLength="203.0752" x="145" y="344.6426">Server-Administrationen / Hoster</text></g><!--entity Dev--><g class="entity" data-entity="Dev" data-source-line="11" data-uid="ent0004" id="entity_Dev"><ellipse cx="246.4722" cy="165.6094" fill="#F1F1F1" rx="8" ry="8" style="stroke:#181818;stroke-width:0.5;"/><path d="M246.4722,173.6094 L246.4722,200.6094 M233.4722,181.6094 L259.4722,181.6094 M246.4722,200.6094 L233.4722,215.6094 M246.4722,200.6094 L259.4722,215.6094" fill="none" style="stroke:#181818;stroke-width:0.5;"/><text fill="#000000" font-family="sans-serif" font-size="14" lengthAdjust="spacing" textLength="157.9443" x="167.5" y="231.6426">Community-Entwickelnde</text></g><!--entity Ops--><g class="entity" data-entity="Ops" data-source-line="12" data-uid="ent0005" id="entity_Ops"><ellipse cx="246.5894" cy="391.6094" fill="#F1F1F1" rx="8" ry="8" style="stroke:#181818;stroke-width:0.5;"/><path d="M246.5894,399.6094 L246.5894,426.6094 M233.5894,407.6094 L259.5894,407.6094 M246.5894,426.6094 L233.5894,441.6094 M246.5894,426.6094 L259.5894,441.6094" fill="none" style="stroke:#181818;stroke-width:0.5;"/><text fill="#000000" font-family="sans-serif" font-size="14" lengthAdjust="spacing" textLength="178.1787" x="157.5" y="457.6426">Betrieb / Support (Hersteller)</text></g><!--entity System--><g class="entity" data-entity="System" data-source-line="15" data-uid="ent0006" id="entity_System"><rect fill="#F1F1F1" height="37.6094" rx="2.5" ry="2.5" style="stroke:#181818;stroke-width:0.5;" width="77.5723" x="207.5" y="496.1094"/><text fill="#000000" font-family="sans-serif" font-size="14" lengthAdjust="spacing" textLength="57.5723" x="217.5" y="520.6426">Minecraft</text></g><!--entity Commerce--><g class="entity" data-entity="Commerce" data-source-line="18" data-uid="ent0007" id="entity_Commerce"><rect fill="#F1F1F1" height="55.2188" rx="2.5" ry="2.5" style="stroke:#181818;stroke-width:0.5;" width="197.4268" x="148" y="659.6094"/><text fill="#000000" font-family="sans-serif" font-size="14" lengthAdjust="spacing" textLength="177.4268" x="158" y="684.1426">Zahlungsdienstleister / Store</text><text fill="#000000" font-family="sans-serif" font-size="14" lengthAdjust="spacing" textLength="138.4551" x="158" y="701.752">(Microsoft Commerce)</text></g><!--entity Identity--><g class="entity" data-entity="Identity" data-source-line="19" data-uid="ent0008" id="entity_Identity"><rect fill="#F1F1F1" height="55.2188" rx="2.5" ry="2.5" style="stroke:#181818;stroke-width:0.5;" width="140.5859" x="176" y="569.6094"/><text fill="#000000" font-family="sans-serif" font-size="14" lengthAdjust="spacing" textLength="101.958" x="186" y="594.1426">Identitaetsdienst</text><text fill="#000000" font-family="sans-serif" font-size="14" lengthAdjust="spacing" textLength="120.5859" x="186" y="611.752">(Microsoft Account)</text></g><!--link Spieler to System--><g class="link" data-entity-1="Spieler" data-entity-2="System" data-source-line="22" data-uid="lnk9" id="link_Spieler_System"><path d="M215.41,83.1094 C180.01,83.1094 127,83.1094 127,83.1094 C127,83.1094 127,521.4394 127,521.4394 C127,521.4394 166.52,521.4394 201.37,521.4394" fill="none" id="Spieler-to-System" style="stroke:#181818;stroke-width:1;"/><polygon fill="#181818" points="207.37,521.4394,198.37,517.4394,202.37,521.4394,198.37,525.4394,207.37,521.4394" style="stroke:#181818;stroke-width:1;"/><text fill="#000000" font-family="sans-serif" font-size="13" lengthAdjust="spacing" textLength="99.7344" x="27" y="312.7445">Spielen, Chatten,</text><text fill="#000000" font-family="sans-serif" font-size="13" lengthAdjust="spacing" textLength="81.6753" x="36.0295" y="329.0961">Inhalte nutzen</text></g><!--link Dev to System--><g class="link" data-entity-1="Dev" data-entity-2="System" data-source-line="23" data-uid="lnk10" id="link_Dev_System"><path d="M325.54,196.1094 C347.77,196.1094 366,196.1094 366,196.1094 C366,196.1094 366,508.7794 366,508.7794 C366,508.7794 326.48,508.7794 291.63,508.7794" fill="none" id="Dev-to-System" style="stroke:#181818;stroke-width:1;"/><polygon fill="#181818" points="285.63,508.7794,294.63,512.7794,290.63,508.7794,294.63,504.7794,285.63,508.7794" style="stroke:#181818;stroke-width:1;"/><text fill="#000000" font-family="sans-serif" font-size="13" lengthAdjust="spacing" textLength="112.7407" x="367" y="386.8945">Inhalte bereitstellen</text><text fill="#000000" font-family="sans-serif" font-size="13" lengthAdjust="spacing" textLength="105.479" x="370.6309" y="403.2461">(Mods/Datapacks)</text></g><!--link Admin to System--><g class="link" data-entity-1="Admin" data-entity-2="System" data-source-line="24" data-uid="lnk11" id="link_Admin_System"><path d="M153,348.5594 C153,406.7494 153,508.7794 153,508.7794 C153,508.7794 175.77,508.7794 201.39,508.7794" fill="none" id="Admin-to-System" style="stroke:#181818;stroke-width:1;"/><polygon fill="#181818" points="207.39,508.7794,198.39,504.7794,202.39,508.7794,198.39,512.7794,207.39,508.7794" style="stroke:#181818;stroke-width:1;"/><text fill="#000000" font-family="sans-serif" font-size="13" lengthAdjust="spacing" textLength="130.7744" x="14.2427" y="470.3545">Mehrspieler verwalten,</text><text fill="#000000" font-family="sans-serif" font-size="13" lengthAdjust="spacing" textLength="145.2598" x="7" y="486.7061">Moderation/Konfiguration</text></g><!--link Ops to System--><g class="link" data-entity-1="Ops" data-entity-2="System" data-source-line="25" data-uid="lnk12" id="link_Ops_System"><path d="M247,461.2794 C247,473.1894 247,479.7694 247,489.7594" fill="none" id="Ops-to-System" style="stroke:#181818;stroke-width:1;"/><polygon fill="#181818" points="247,495.7594,251,486.7594,247,490.7594,243,486.7594,247,495.7594" style="stroke:#181818;stroke-width:1;"/><text fill="#000000" font-family="sans-serif" font-size="13" lengthAdjust="spacing" textLength="149.5889" x="248" y="475.0145">Betrieb, Support, Updates</text></g><!--link System to Commerce--><g class="link" data-entity-1="System" data-entity-2="Commerce" data-source-line="27" data-uid="lnk13" id="link_System_Commerce"><path d="M285.81,521.4394 C306.24,521.4394 327,521.4394 327,521.4394 C327,521.4394 327,606.2194 327,653.3794" fill="none" id="System-to-Commerce" style="stroke:#181818;stroke-width:1;"/><polygon fill="#181818" points="327,659.3794,331,650.3794,327,654.3794,323,650.3794,327,659.3794" style="stroke:#181818;stroke-width:1;"/><text fill="#000000" font-family="sans-serif" font-size="13" lengthAdjust="spacing" textLength="117.7935" x="328" y="584.3145">Zahlungsabwicklung</text><text fill="#000000" font-family="sans-serif" font-size="13" lengthAdjust="spacing" textLength="86.7153" x="343.5391" y="600.6661">(Kaeufe, Abos)</text></g><!--link System to Identity--><g class="link" data-entity-1="System" data-entity-2="Identity" data-source-line="28" data-uid="lnk14" id="link_System_Identity"><path d="M247,534.1294 C247,544.6294 247,551.8694 247,563.4894" fill="none" id="System-to-Identity" style="stroke:#181818;stroke-width:1;"/><polygon fill="#181818" points="247,569.4894,251,560.4894,247,564.4894,243,560.4894,247,569.4894" style="stroke:#181818;stroke-width:1;"/><text fill="#000000" font-family="sans-serif" font-size="13" lengthAdjust="spacing" textLength="109.1353" x="248" y="549.3045">Konten &amp; Lizenzen</text><text fill="#000000" font-family="sans-serif" font-size="13" lengthAdjust="spacing" textLength="74.4263" x="265.3545" y="565.6561">(Anmeldung)</text></g><!--SRC=[RLFBRjim4Bph4tfQ-D3QW0NVUoXW9muIf6w0khaKkT3KoboOMWhaAedpzLtgOIH5JfR4dU7CpbX8FCAE66qqjHH5EX6t9fe6R6ZQmCYobxFEHBHY-EZntOXNd9nRX135XNS7oPagl10VeJO-OU6n5f00aOvEeA9CHe6BuXlia9DroAlVmNjae0OUcnfzLHWh8S9itnBgGOKpC0c6jtWvnFYCiLnN3J4bYIRJAiiARaCIZ3scFvqGLw5fEYOvbrkM5x8dz1FtDJvFKnkKI7XGddtNjceFvhSObL4rnaK__T2ch7z_rgzDbdqJJbs2-SORUu9DU5qKbvt1xBBYmKKFol3jgwfaNEgYhFEacu1V-dGmCVKp2FFW6E4FMiTqAgzH3FdqWVklSRxZOwf8TwbvKdQUfQiLVEBvZcmCAMW4sJn6YuE3wUqzrrsbYPCOb97k0tvjRUXO1lWuUiusDlX6w5I4xjvqDToeXtBr48z6O-b3IUNsW6fahgKv9VYYfHD1_TNBdQYXCLae-vAKFwRDVXypvoLSEQCONZxn7JlZ5SwTl24Ncjmdk6deW159Xl0u-mbLMbqRCQqcfJVt_VW4lqCNqwXAM_QIoVBbYiUXQQlxm3KTk-6jq4fyGZDsQJbLQGcFRMK4jJxZp0Kp9QAeALHpo2NDZwhytc1NQrdMXv0tzXzw2aJHgakrmbVuIRgVjzxscXlzModHelW7]--></g></svg>