<svg xmlns="http://www.w3.org/2000/svg" xmlns:xlink="http://www.w3.org/1999/xlink" contentStyleType="text/css" data-diagram-type="DESCRIPTION" height="467px" preserveAspectRatio="none" style="width:614px;height:467px;background:#FFFFFF;" version="1.1" viewBox="0 0 614 467" width="614px" zoomAndPan="magnify"><title>Minecraft - Kontextdiagramm (Systemgrenze: Client + Server)</title><defs/><g><g class="title" data-source-line="1"><text fill="#000000" font-family="sans-serif" font-size="14" font-weight="bold" lengthAdjust="spacing" textLength="408.8301" x="95.7984" y="24.5332">Minecraft - Kontextdiagramm (Systemgrenze: Client + Server)</text></g><!--cluster System--><g class="cluster" data-entity="System" data-source-line="10" data-uid="ent0003" id="cluster_System"><rect fill="none" height="163" rx="2.5" ry="2.5" style="stroke:#181818;stroke-width:1;" width="356" x="252" y="110.1094"/><text fill="#000000" font-family="sans-serif" font-size="14" font-weight="bold" lengthAdjust="spacing" textLength="173.8857" x="343.0571" y="126.6426">Minecraft (Client + Server)</text></g><!--entity Client--><g class="entity" data-entity="Client" data-source-line="11" data-uid="ent0004" id="entity_Client"><rect fill="#F1F1F1" height="37.6094" rx="2.5" ry="2.5" style="stroke:#181818;stroke-width:0.5;" width="117.2549" x="271" y="219.1094"/><text fill="#000000" font-family="sans-serif" font-size="14" lengthAdjust="spacing" textLength="97.2549" x="281" y="243.6426">Minecraft Client</text></g><!--entity Server--><g class="entity" data-entity="Server" data-source-line="12" data-uid="ent0005" id="entity_Server"><rect fill="#F1F1F1" height="37.6094" rx="2.5" ry="2.5" style="stroke:#181818;stroke-width:0.5;" width="122.6963" x="268" y="146.1094"/><text fill="#000000" font-family="sans-serif" font-size="14" lengthAdjust="spacing" textLength="102.6963" x="278" y="170.6426">Minecraft Server</text></g><!--entity Daten--><g class="entity" data-entity="Daten" data-source-line="13" data-uid="ent0006" id="entity_Daten"><path d="M461,156.1094 C461,146.1094 526.6411,146.1094 526.6411,146.1094 C526.6411,146.1094 592.2822,146.1094 592.2822,156.1094 L592.2822,200.3281 C592.2822,210.3281 526.6411,210.3281 526.6411,210.3281 C526.6411,210.3281 461,210.3281 461,200.3281 L461,156.1094" fill="#F1F1F1" style="stroke:#181818;stroke-width:0.5;"/><path d="M461,156.1094 C461,166.1094 526.6411,166.1094 526.6411,166.1094 C526.6411,166.1094 592.2822,166.1094 592.2822,156.1094" fill="none" style="stroke:#181818;stroke-width:0.5;"/><text fill="#000000" font-family="sans-serif" font-size="14" lengthAdjust="spacing" textLength="111.2822" x="471" y="184.6426">Persistente Daten</text><text fill="#000000" font-family="sans-serif" font-size="14" lengthAdjust="spacing" textLength="106.5723" x="471" y="202.252">(NBT Save Files)</text></g><!--entity Spieler--><g class="entity" data-entity="Spieler" data-source-line="8" data-uid="ent0002" id="entity_Spieler"><ellipse cx="111.793" cy="153.6094" fill="#F1F1F1" rx="8" ry="8" style="stroke:#181818;stroke-width:0.5;"/><path d="M111.793,161.6094 L111.793,188.6094 M98.793,169.6094 L124.793,169.6094 M111.793,188.6094 L98.793,203.6094 M111.793,188.6094 L124.793,203.6094" fill="none" style="stroke:#181818;stroke-width:0.5;"/><text fill="#000000" font-family="sans-serif" font-size="14" lengthAdjust="spacing" textLength="92.5859" x="65.5" y="219.6426">Spieler (Client)</text></g><!--entity Launcher--><g class="entity" data-entity="Launcher" data-source-line="19" data-uid="ent0009" id="entity_Launcher"><path d="M42.2237,267.3562 C44.7109,261.7481 49.5611,261.3946 52.9599,266.4373 C56.9202,259.6267 61.4695,259.5584 66.4985,265.2832 C69.2744,260.1654 72.3696,259.0484 76.7619,263.5604 C78.7918,257.1266 83.7086,255.0568 88.7587,260.5132 C91.7795,253.4744 97.7522,254.6097 101.5416,259.7035 C105.2183,253.7357 109.0708,253.7226 113.7011,258.638 C117.3654,253.7298 120.8262,252.8641 124.4004,258.7276 C129.5658,253.6834 133.6443,255.2258 135.7712,261.7215 C140.5187,255.8441 144.7358,256.1771 148.979,262.2775 C152.9206,257.2613 157.3598,258.7283 160.125,263.6031 C165.4532,259.4355 170.2189,260.4925 172.8719,266.8447 C177.0136,262.2859 180.5302,263.6015 183.1728,268.4809 C189.6956,270.8185 192.1041,274.2011 187.5693,280.5625 C193.5736,282.5928 195.3698,288.2321 189.7525,292.4049 C195.4664,297.6083 193.0063,302.6399 186.7043,304.9157 C192.4667,309.9611 191.8624,314.6514 184.6042,317.5289 C181.3211,323.4869 175.5826,322.9006 172.6016,317.2174 C169.1589,323.5806 162.9292,322.8315 159.4669,317.2389 C157.1993,322.7476 154.044,323.2155 149.3866,320.0003 C146.4743,326.5378 140.1561,326.0902 136.648,320.633 C132.5666,326.9703 128.1038,326.8978 124.4733,320.2115 C121.5605,326.4734 116.9128,325.5373 113.2451,320.9961 C109.5835,326.742 104.2337,324.8489 102.0098,319.5355 C98.9947,325.4811 93.4105,326.1903 89.2552,320.8208 C85.2682,325.2509 79.0665,324.8771 76.8824,318.7148 C73.742,324.3819 68.7991,324.1295 65.8455,318.5319 C62.0958,323.8788 58.0663,324.6492 54.1484,318.7063 C49.7257,323.9391 43.65,322.384 41.1155,316.4939 C34.8017,314.8247 33.0308,308.8673 37.7626,304.1885 C31.4015,302.4772 29.7825,297.1873 34.2462,292.2797 C29.8279,287.3177 30.5611,282.5548 37.552,280.9101 C32.2389,274.6469 33.9014,268.9196 42.2237,267.3562" fill="#F1F1F1" style="stroke:#181818;stroke-width:0.5;"/><text fill="#000000" font-family="sans-serif" font-size="14" lengthAdjust="spacing" textLength="127.6201" x="48" y="288.1426">Minecraft Launcher /</text><text fill="#000000" font-family="sans-serif" font-size="14" lengthAdjust="spacing" textLength="56.0137" x="48" y="305.752">Plattform</text></g><!--entity MS--><g class="entity" data-entity="MS" data-source-line="20" data-uid="ent0010" id="entity_MS"><path d="M460.4397,399.319 C463.3958,393.6222 468.2258,391.4873 472.878,397.5206 C474.9954,392.5267 478.8629,391.0191 483.2279,394.8992 C485.3816,389.7317 490.9542,389.0493 494.4121,393.3603 C497.1618,388.3316 500.5353,386.6693 504.9768,391.558 C508.2522,384.9691 512.9663,384.0606 517.525,390.303 C520.4826,384.2001 524.0411,384.3657 528.7132,388.4133 C533.3274,383.9521 537.3148,385.4613 539.6174,390.9472 C543.7874,386.1474 548.9088,386.8603 550.7048,393.291 C554.8941,388.4469 558.3431,388.0788 561.7582,394.08 C565.7274,388.8397 569.3569,389.3961 572.9904,394.4465 C576.9164,390.007 581.8407,391.2025 583.3165,396.934 C587.4552,392.4096 592.4599,392.5229 594.3989,399.125 C601.2583,402.2182 600.3432,407.9993 594.934,411.618 C601.668,414.3519 603.134,418.207 598.2983,424.0675 C602.42,428.3702 602.5168,432.7114 596.6652,435.602 C601.9,440.6365 601.1083,445.1793 594.4067,448.0478 C591.9243,454.6407 587.6031,454.0523 583.3627,449.8457 C579.3948,455.4132 575.5099,454.6643 571.6239,449.7539 C568.8193,455.5809 564.575,456.9445 559.8961,451.7479 C558.0273,457.105 553.4914,456.8554 550.2134,453.2745 C547.1059,458.2088 543.1319,458.7607 539.7847,453.5202 C537.1332,460.0235 533.0175,460.5567 528.6632,455.1043 C524.8559,460.1364 520.3925,459.7818 517.5456,454.1071 C513.2678,460.7183 507.8498,459.3392 504.4276,453.2252 C500.7169,456.4747 496.802,456.8489 494.9911,451.2086 C491.1995,457.3398 486.5147,457.4737 483.0625,450.8902 C479.51,455.2849 474.6185,455.2826 471.711,450.1237 C466.9919,454.6056 463.5741,454.4094 460.7014,448.219 C453.5723,443.6842 455.1703,439.0836 460.764,434.6073 C455.5282,433.0434 453.018,428.2368 457.9379,423.9738 C452.1077,419.1092 454.1722,413.9773 460.0051,410.9662 C454.6193,407.5883 455.2503,402.3022 460.4397,399.319" fill="#F1F1F1" style="stroke:#181818;stroke-width:0.5;"/><text fill="#000000" font-family="sans-serif" font-size="14" lengthAdjust="spacing" textLength="119.041" x="467" y="419.1426">Microsoft Account /</text><text fill="#000000" font-family="sans-serif" font-size="14" lengthAdjust="spacing" textLength="119.0547" x="467" y="436.752">Xbox Live Services</text></g><!--entity Market--><g class="entity" data-entity="Market" data-source-line="21" data-uid="ent0011" id="entity_Market"><path d="M460.8937,299.0097 C463.2301,294.0941 467.6729,294.1311 470.8296,298.0914 C472.1001,291.6066 476.9477,289.707 481.8545,294.5532 C484.9607,288.8688 489.7415,287.6444 494.1911,293.0602 C497.6383,287.6006 501.4698,288.8869 504.7699,293.2191 C506.4924,287.442 511.6317,284.9514 516.5314,289.6529 C518.4956,283.8063 523.1459,283.12 526.7491,288.1071 C531.3304,283.0546 536.5458,284.3095 538.6266,290.7022 C543.1062,284.4 547.1335,285.8284 551.1152,291.2334 C555.0023,286.9059 558.8889,288.0907 560.9022,293.1806 C565.8544,287.9669 569.7243,289.986 572.5281,295.5073 C577.068,291.0406 580.4238,290.815 583.1711,297.2563 C587.8744,291.3537 592.4793,291.3085 595.921,298.486 C601.8894,301.3222 602.9628,306.2769 598.2407,311.0818 C605.3151,312.9793 607.4268,318.4784 602.4503,324.2332 C607.0293,329.9815 605.8742,334.0694 598.4209,335.5236 C603.1946,340.5569 602.0144,345.9099 595.5729,348.4775 C592.3357,353.756 588.684,354.5018 584.9464,348.9694 C581.8594,353.599 576.002,354.483 573.1845,348.666 C569.8091,353.938 564.5694,354.3807 561.2227,348.6348 C558.4234,352.7132 554.5922,353.6927 551.3818,349.1015 C548.1598,354.4973 542.7228,355.5056 538.8174,349.8807 C535.2439,356.5369 530.8699,355.6308 526.8005,350.3813 C523.6248,354.6212 520.5852,354.1679 517.5402,350.2333 C513.4091,355.9237 508.5579,354.6762 505.6092,348.993 C501.8397,354.5604 498.487,354.4028 494.8846,348.8321 C490.4438,355.4477 485.5044,355.0904 481.8111,348.1131 C479.04,353.3149 474.875,354.2615 471.2738,348.9447 C467.6849,354.0494 462.3442,354.1526 459.8478,347.8503 C454.1215,344.5443 453.1004,341.08 458.0144,336.112 C451.7598,334.1113 449.907,327.7842 454.8108,323.0473 C449.1687,318.5402 450.1098,313.5107 456.5683,310.7302 C452.022,304.8255 453.7671,300.6065 460.8937,299.0097" fill="#F1F1F1" style="stroke:#181818;stroke-width:0.5;"/><text fill="#000000" font-family="sans-serif" font-size="14" lengthAdjust="spacing" textLength="121.3789" x="466" y="319.1426">Ressourcenserver /</text><text fill="#000000" font-family="sans-serif" font-size="14" lengthAdjust="spacing" textLength="76.2549" x="466" y="336.752">Marketplace</text></g><!--entity Modding--><g class="entity" data-entity="Modding" data-source-line="22" data-uid="ent0012" id="entity_Modding"><polygon fill="#F1F1F1" points="16,54.6094,26,44.6094,208.4961,44.6094,208.4961,99.8281,198.4961,109.8281,16,109.8281,16,54.6094" style="stroke:#181818;stroke-width:0.5;"/><line style="stroke:#181818;stroke-width:0.5;" x1="198.4961" x2="208.4961" y1="54.6094" y2="44.6094"/><line style="stroke:#181818;stroke-width:0.5;" x1="16" x2="198.4961" y1="54.6094" y2="54.6094"/><line style="stroke:#181818;stroke-width:0.5;" x1="198.4961" x2="198.4961" y1="54.6094" y2="109.8281"/><text fill="#000000" font-family="sans-serif" font-size="14" lengthAdjust="spacing" textLength="129.9512" x="31" y="79.1426">Modding-Plattformen</text><text fill="#000000" font-family="sans-serif" font-size="14" lengthAdjust="spacing" textLength="152.4961" x="31" y="96.752">(Forge, Fabric, Add-ons)</text></g><!--entity Edu--><g class="entity" data-entity="Edu" data-source-line="23" data-uid="ent0013" id="entity_Edu"><path d="M33,358.6094 L74,358.6094 A3.75,3.75 0 0 1 76.5,361.1094 L83.5,379.6094 L191.0547,379.6094 A2.5,2.5 0 0 1 193.5547,382.1094 L193.5547,429.3281 A2.5,2.5 0 0 1 191.0547,431.8281 L33,431.8281 A2.5,2.5 0 0 1 30.5,429.3281 L30.5,361.1094 A2.5,2.5 0 0 1 33,358.6094" fill="#F1F1F1" style="stroke:#181818;stroke-width:0.5;"/><line style="stroke:#181818;stroke-width:0.5;" x1="30.5" x2="83.5" y1="379.6094" y2="379.6094"/><text fill="#000000" font-family="sans-serif" font-size="14" lengthAdjust="spacing" textLength="108.165" x="40.5" y="401.1426">Bildungsplattform</text><text fill="#000000" font-family="sans-serif" font-size="14" lengthAdjust="spacing" textLength="133.0547" x="40.5" y="418.752">(Minecraft Education)</text></g><!--link Client to Server--><g class="link" data-entity-1="Client" data-entity-2="Server" data-source-line="15" data-uid="lnk7" id="link_Client_Server"><path d="M330,218.9294 C330,208.1994 330,200.8694 330,190.1594" fill="none" id="Client-to-Server" style="stroke:#A9A9A9;stroke-width:1;stroke-dasharray:7,7;"/><polygon fill="#A9A9A9" points="330,184.1594,326,193.1594,330,189.1594,334,193.1594,330,184.1594" style="stroke:#A9A9A9;stroke-width:1;"/><text fill="#000000" font-family="sans-serif" font-size="13" lengthAdjust="spacing" textLength="41.8945" x="341.48" y="199.0445">TCP/IP</text><text fill="#000000" font-family="sans-serif" font-size="13" lengthAdjust="spacing" textLength="62.8545" x="331" y="215.3961">Multiplayer</text></g><!--link Server to Daten--><g class="link" data-entity-1="Server" data-entity-2="Daten" data-source-line="16" data-uid="lnk8" id="link_Server_Daten"><path d="M391.02,165.1094 C413.15,165.1094 432.19,165.1094 454.67,165.1094" fill="none" id="Server-to-Daten" style="stroke:#181818;stroke-width:1;"/><polygon fill="#181818" points="460.67,165.1094,451.67,161.1094,455.67,165.1094,451.67,169.1094,460.67,165.1094" style="stroke:#181818;stroke-width:1;"/><text fill="#000000" font-family="sans-serif" font-size="13" lengthAdjust="spacing" textLength="105.5234" x="319.85" y="179.6045">Speichern / Laden</text></g><!--link Spieler to Client--><g class="link" data-entity-1="Spieler" data-entity-2="Client" data-source-line="25" data-uid="lnk14" id="link_Spieler_Client"><path d="M112,223.2694 C112,229.7694 112,234.4394 112,234.4394 C112,234.4394 200.51,234.4394 264.93,234.4394" fill="none" id="Spieler-to-Client" style="stroke:#181818;stroke-width:1;"/><polygon fill="#181818" points="270.93,234.4394,261.93,230.4394,265.93,234.4394,261.93,238.4394,270.93,234.4394" style="stroke:#181818;stroke-width:1;"/><text fill="#000000" font-family="sans-serif" font-size="13" lengthAdjust="spacing" textLength="106.2534" x="78.88" y="248.9345">Eingaben, Befehle</text></g><!--link Launcher to Client--><g class="link" data-entity-1="Launcher" data-entity-2="Client" data-source-line="26" data-uid="lnk15" id="link_Launcher_Client"><path d="M175,258.1594 C175,251.1294 175,245.7794 175,245.7794 C175,245.7794 220.99,245.7794 264.65,245.7794" fill="none" id="Launcher-to-Client" style="stroke:#181818;stroke-width:1;"/><polygon fill="#181818" points="270.65,245.7794,261.65,241.7794,265.65,245.7794,261.65,249.7794,270.65,245.7794" style="stroke:#181818;stroke-width:1;"/><text fill="#000000" font-family="sans-serif" font-size="13" lengthAdjust="spacing" textLength="117.0635" x="217.63" y="260.2745">Start, Auth, Updates</text></g><!--link Client to MS--><g class="link" data-entity-1="Client" data-entity-2="MS" data-source-line="27" data-uid="lnk16" id="link_Client_MS"><path d="M349,263.2294 C349,308.1394 349,410.6094 349,410.6094 C349,410.6094 397.42,410.6094 446,410.6094" fill="none" id="Client-MS" style="stroke:#181818;stroke-width:1;"/><polygon fill="#181818" points="349,257.2294,345,266.2294,349,262.2294,353,266.2294,349,257.2294" style="stroke:#181818;stroke-width:1;"/><polygon fill="#181818" points="452,410.6094,443,406.6094,447,410.6094,443,414.6094,452,410.6094" style="stroke:#181818;stroke-width:1;"/><text fill="#000000" font-family="sans-serif" font-size="13" lengthAdjust="spacing" textLength="157.5298" x="350" y="381.9145">Login, Freunde, Multiplayer</text></g><!--link Client to Market--><g class="link" data-entity-1="Client" data-entity-2="Market" data-source-line="28" data-uid="lnk17" id="link_Client_Market"><path d="M388.31,238.1094 C421.34,238.1094 456,238.1094 456,238.1094 C456,238.1094 456,259.8094 456,283.3894" fill="none" id="Client-to-Market" style="stroke:#181818;stroke-width:1;"/><polygon fill="#181818" points="456,289.3894,460,280.3894,456,284.3894,452,280.3894,456,289.3894" style="stroke:#181818;stroke-width:1;"/><text fill="#000000" font-family="sans-serif" font-size="13" lengthAdjust="spacing" textLength="115.6162" x="448.79" y="252.6045">Inhalte (Downloads)</text></g><!--link Modding to Server--><g class="link" data-entity-1="Modding" data-entity-2="Server" data-source-line="29" data-uid="lnk18" id="link_Modding_Server"><path d="M201,115.8794 C201,140.8994 201,165.1094 201,165.1094 C201,165.1094 228.91,165.1094 261.88,165.1094" fill="none" id="Modding-Server" style="stroke:#181818;stroke-width:1;"/><polygon fill="#181818" points="201,109.8794,197,118.8794,201,114.8794,205,118.8794,201,109.8794" style="stroke:#181818;stroke-width:1;"/><polygon fill="#181818" points="267.88,165.1094,258.88,161.1094,262.88,165.1094,258.88,169.1094,267.88,165.1094" style="stroke:#181818;stroke-width:1;"/><text fill="#000000" font-family="sans-serif" font-size="13" lengthAdjust="spacing" textLength="77.3145" x="207.83" y="179.6045">Plugins, APIs</text></g><!--link Edu to Client--><g class="link" data-entity-1="Edu" data-entity-2="Client" data-source-line="30" data-uid="lnk19" id="link_Edu_Client"><path d="M199.68,395.1094 C254.22,395.1094 310,374.1094 310,374.1094 C310,374.1094 310,300.7994 310,263.3094" fill="none" id="Edu-Client" style="stroke:#181818;stroke-width:1;"/><polygon fill="#181818" points="193.68,395.1094,202.68,399.1094,198.68,395.1094,202.68,391.1094,193.68,395.1094" style="stroke:#181818;stroke-width:1;"/><polygon fill="#181818" points="310,257.3094,306,266.3094,310,262.3094,314,266.3094,310,257.3094" style="stroke:#181818;stroke-width:1;"/><text fill="#000000" font-family="sans-serif" font-size="13" lengthAdjust="spacing" textLength="122.8398" x="187" y="370.3645">Unterrichtsfunktionen</text></g><!--SRC=[TL9DYzim4BthLmpf9Q4nkOUoiDbiIcXIJBqBXKqF4sbiYoYIaUJTJKl_UyUMyz52J_wOzzwyDpDHHqEmrPQanp921b-SZVGUbSRAu_48u-8K8XqhJ_OdpU71QB8HFa91_fNyH8XmqBP1ne9qnyPPBXVnnAgUP4HR6Rg16EuKJms1yx5sDuLGet9lsbPGeWaa3B6RwC3hgewWT2UcdHK2PNGUHaMZoP27SJ8q6G4667uASMaDesksyR_U4wUF1xy4NFtViXAfXwRN_m6JQDBiNnceCE8U0zl8oGVDdNYui4H-xkpuw-892dmbM6b38TdfQuAfWzdivSCI_U6pnzDKOQX9_RWRz64EJm_vR9tlxBOrKJS6JttNePnbTqcEWKL3MjRaBSnWWufR_1P26jUgsmWRR6s7WjdEvWPZB9q_zhREbIj7UXSSS-wbT2qRPShtlNk7ZUP0dGCjAVJSRN5cVQCGNEibsP0iCcdBwIYoTqa9tNyBwrItFASKtqHsCTFFRULyHLDOuTvhEOLxfJ9dX_aD354wexZ1QA6DQcqLchC2yw-17rKhiRkhHEPF8SwNrOrlMC8S7baJzsIdiA2IQhxfowp-mXKHVMHBRQodyDpm_Yc8eVgfGsuBHcrSfLbgvQcrYfFShk-yzmxRZuBnQrkZuSCPBzsRDGvLc8WXQ5Az74HkMfOEx21V1y5vKltYxvdlp_FKwXZArXwww7mBVm00]--></g></svg>