<svg xmlns="http://www.w3.org/2000/svg" xmlns:xlink="http://www.w3.org/1999/xlink" contentStyleType="text/css" data-diagram-type="DESCRIPTION" height="708px" preserveAspectRatio="none" style="width:881px;height:708px;background:#FFFFFF;" version="1.1" viewBox="0 0 881 708" width="881px" zoomAndPan="magnify"><title>Minecraft - Technischer Kontext</title><defs/><g><g class="title" data-source-line="1"><text fill="#000000" font-family="sans-serif" font-size="14" font-weight="bold" lengthAdjust="spacing" textLength="213.1514" x="327.1377" y="24.5332">Minecraft - Technischer Kontext</text></g><!--entity Minecraft--><g class="entity" data-entity="Minecraft" data-source-line="19" data-uid="ent0002" id="entity_Minecraft"><rect fill="#F1F1F1" height="125.6563" rx="7.5" ry="7.5" style="stroke:#000000;stroke-width:2;" width="270.5303" x="316" y="298.1094"/><text fill="#000000" font-family="sans-serif" font-size="14" lengthAdjust="spacing" textLength="3.8896" x="326" y="322.6426">&#160;</text><text fill="#000000" font-family="sans-serif" font-size="14" lengthAdjust="spacing" textLength="3.8896" x="326" y="340.252">&#160;</text><text fill="#000000" font-family="sans-serif" font-size="14" lengthAdjust="spacing" textLength="137.7031" x="345.4482" y="357.8613">Minecraft-Spielsystem</text><text fill="#000000" font-family="sans-serif" font-size="14" lengthAdjust="spacing" textLength="211.6338" x="345.4482" y="375.4707">(Launcher, Client, Server/Realms)</text><text fill="#000000" font-family="sans-serif" font-size="14" lengthAdjust="spacing" textLength="3.8896" x="326" y="393.0801">&#160;</text><text fill="#000000" font-family="sans-serif" font-size="14" lengthAdjust="spacing" textLength="3.8896" x="326" y="410.6895">&#160;</text></g><!--entity Clients--><g class="entity" data-entity="Clients" data-source-line="22" data-uid="ent0003" id="entity_Clients"><polygon fill="#F1F1F1" points="16,288.6094,26,278.6094,255.9854,278.6094,255.9854,333.8281,245.9854,343.8281,16,343.8281,16,288.6094" style="stroke:#181818;stroke-width:0.5;"/><line style="stroke:#181818;stroke-width:0.5;" x1="245.9854" x2="255.9854" y1="288.6094" y2="278.6094"/><line style="stroke:#181818;stroke-width:0.5;" x1="16" x2="245.9854" y1="288.6094" y2="288.6094"/><line style="stroke:#181818;stroke-width:0.5;" x1="245.9854" x2="245.9854" y1="288.6094" y2="343.8281"/><text fill="#000000" font-family="sans-serif" font-size="14" lengthAdjust="spacing" textLength="72.3926" x="31" y="313.1426">Endgeraete</text><text fill="#000000" font-family="sans-serif" font-size="14" lengthAdjust="spacing" textLength="199.9854" x="31" y="330.752">(Desktop, Konsole, Mobilgeraet)</text></g><!--entity SelfHostHW--><g class="entity" data-entity="SelfHostHW" data-source-line="23" data-uid="ent0004" id="entity_SelfHostHW"><polygon fill="#F1F1F1" points="662,54.6094,672,44.6094,849.0547,44.6094,849.0547,99.8281,839.0547,109.8281,662,109.8281,662,54.6094" style="stroke:#181818;stroke-width:0.5;"/><line style="stroke:#181818;stroke-width:0.5;" x1="839.0547" x2="849.0547" y1="54.6094" y2="44.6094"/><line style="stroke:#181818;stroke-width:0.5;" x1="662" x2="839.0547" y1="54.6094" y2="54.6094"/><line style="stroke:#181818;stroke-width:0.5;" x1="839.0547" x2="839.0547" y1="54.6094" y2="109.8281"/><text fill="#000000" font-family="sans-serif" font-size="14" lengthAdjust="spacing" textLength="147.0547" x="677" y="79.1426">Eigenes Server-System</text><text fill="#000000" font-family="sans-serif" font-size="14" lengthAdjust="spacing" textLength="94.1309" x="677" y="96.752">(Hardware/OS)</text></g><!--entity RealmsHW--><g class="entity" data-entity="RealmsHW" data-source-line="24" data-uid="ent0005" id="entity_RealmsHW"><polygon fill="#F1F1F1" points="656,155.1094,666,145.1094,854.71,145.1094,854.71,182.7188,844.71,192.7188,656,192.7188,656,155.1094" style="stroke:#181818;stroke-width:0.5;"/><line style="stroke:#181818;stroke-width:0.5;" x1="844.71" x2="854.71" y1="155.1094" y2="145.1094"/><line style="stroke:#181818;stroke-width:0.5;" x1="656" x2="844.71" y1="155.1094" y2="155.1094"/><line style="stroke:#181818;stroke-width:0.5;" x1="844.71" x2="844.71" y1="155.1094" y2="192.7188"/><text fill="#000000" font-family="sans-serif" font-size="14" lengthAdjust="spacing" textLength="158.71" x="671" y="179.6426">Minecraft Realms (Cloud)</text></g><!--entity Identity--><g class="entity" data-entity="Identity" data-source-line="25" data-uid="ent0006" id="entity_Identity"><polygon fill="#F1F1F1" points="675,238.6094,685,228.6094,835.5859,228.6094,835.5859,283.8281,825.5859,293.8281,675,293.8281,675,238.6094" style="stroke:#181818;stroke-width:0.5;"/><line style="stroke:#181818;stroke-width:0.5;" x1="825.5859" x2="835.5859" y1="238.6094" y2="228.6094"/><line style="stroke:#181818;stroke-width:0.5;" x1="675" x2="825.5859" y1="238.6094" y2="238.6094"/><line style="stroke:#181818;stroke-width:0.5;" x1="825.5859" x2="825.5859" y1="238.6094" y2="293.8281"/><text fill="#000000" font-family="sans-serif" font-size="14" lengthAdjust="spacing" textLength="101.958" x="690" y="263.1426">Identitaetsdienst</text><text fill="#000000" font-family="sans-serif" font-size="14" lengthAdjust="spacing" textLength="120.5859" x="690" y="280.752">(Microsoft Account)</text></g><!--entity Commerce--><g class="entity" data-entity="Commerce" data-source-line="26" data-uid="ent0007" id="entity_Commerce"><polygon fill="#F1F1F1" points="647,338.6094,657,328.6094,864.4268,328.6094,864.4268,383.8281,854.4268,393.8281,647,393.8281,647,338.6094" style="stroke:#181818;stroke-width:0.5;"/><line style="stroke:#181818;stroke-width:0.5;" x1="854.4268" x2="864.4268" y1="338.6094" y2="328.6094"/><line style="stroke:#181818;stroke-width:0.5;" x1="647" x2="854.4268" y1="338.6094" y2="338.6094"/><line style="stroke:#181818;stroke-width:0.5;" x1="854.4268" x2="854.4268" y1="338.6094" y2="393.8281"/><text fill="#000000" font-family="sans-serif" font-size="14" lengthAdjust="spacing" textLength="177.4268" x="662" y="363.1426">Zahlungsdienstleister / Store</text><text fill="#000000" font-family="sans-serif" font-size="14" lengthAdjust="spacing" textLength="138.4551" x="662" y="380.752">(Microsoft Commerce)</text></g><!--entity WorldStore--><g class="entity" data-entity="WorldStore" data-source-line="27" data-uid="ent0008" id="entity_WorldStore"><path d="M655.5,439.1094 C655.5,429.1094 755.731,429.1094 755.731,429.1094 C755.731,429.1094 855.9619,429.1094 855.9619,439.1094 L855.9619,483.3281 C855.9619,493.3281 755.731,493.3281 755.731,493.3281 C755.731,493.3281 655.5,493.3281 655.5,483.3281 L655.5,439.1094" fill="#F1F1F1" style="stroke:#181818;stroke-width:0.5;"/><path d="M655.5,439.1094 C655.5,449.1094 755.731,449.1094 755.731,449.1094 C755.731,449.1094 855.9619,449.1094 855.9619,439.1094" fill="none" style="stroke:#181818;stroke-width:0.5;"/><text fill="#000000" font-family="sans-serif" font-size="14" lengthAdjust="spacing" textLength="146.2822" x="665.5" y="467.6426">World &amp; Player Storage</text><text fill="#000000" font-family="sans-serif" font-size="14" lengthAdjust="spacing" textLength="180.4619" x="665.5" y="485.252">(Filesystem: NBT/Anvil .mca)</text></g><!--entity PluginDB--><g class="entity" data-entity="PluginDB" data-source-line="28" data-uid="ent0009" id="entity_PluginDB"><path d="M654,538.1094 C654,528.1094 755.4204,528.1094 755.4204,528.1094 C755.4204,528.1094 856.8408,528.1094 856.8408,538.1094 L856.8408,582.3281 C856.8408,592.3281 755.4204,592.3281 755.4204,592.3281 C755.4204,592.3281 654,592.3281 654,582.3281 L654,538.1094" fill="#F1F1F1" style="stroke:#181818;stroke-width:0.5;"/><path d="M654,538.1094 C654,548.1094 755.4204,548.1094 755.4204,548.1094 C755.4204,548.1094 856.8408,548.1094 856.8408,538.1094" fill="none" style="stroke:#181818;stroke-width:0.5;"/><text fill="#000000" font-family="sans-serif" font-size="14" lengthAdjust="spacing" textLength="63.0273" x="664" y="566.6426">Plugin-DB</text><text fill="#000000" font-family="sans-serif" font-size="14" lengthAdjust="spacing" textLength="182.8408" x="664" y="584.252">(SQLite/MySQL/PostgreSQL)</text></g><!--entity RealmsStorage--><g class="entity" data-entity="RealmsStorage" data-source-line="29" data-uid="ent0010" id="entity_RealmsStorage"><path d="M690,637.1094 C690,627.1094 755.6514,627.1094 755.6514,627.1094 C755.6514,627.1094 821.3027,627.1094 821.3027,637.1094 L821.3027,681.3281 C821.3027,691.3281 755.6514,691.3281 755.6514,691.3281 C755.6514,691.3281 690,691.3281 690,681.3281 L690,637.1094" fill="#F1F1F1" style="stroke:#181818;stroke-width:0.5;"/><path d="M690,637.1094 C690,647.1094 755.6514,647.1094 755.6514,647.1094 C755.6514,647.1094 821.3027,647.1094 821.3027,637.1094" fill="none" style="stroke:#181818;stroke-width:0.5;"/><text fill="#000000" font-family="sans-serif" font-size="14" lengthAdjust="spacing" textLength="111.3027" x="700" y="665.6426">Managed Storage</text><text fill="#000000" font-family="sans-serif" font-size="14" lengthAdjust="spacing" textLength="98.0205" x="700" y="683.252">(Realms-Cloud)</text></g><!--entity ModdingEnv--><g class="entity" data-entity="ModdingEnv" data-source-line="30" data-uid="ent0011" id="entity_ModdingEnv"><polygon fill="#F1F1F1" points="59,388.6094,69,378.6094,213.3789,378.6094,213.3789,433.8281,203.3789,443.8281,59,443.8281,59,388.6094" style="stroke:#181818;stroke-width:0.5;"/><line style="stroke:#181818;stroke-width:0.5;" x1="203.3789" x2="213.3789" y1="388.6094" y2="378.6094"/><line style="stroke:#181818;stroke-width:0.5;" x1="59" x2="203.3789" y1="388.6094" y2="388.6094"/><line style="stroke:#181818;stroke-width:0.5;" x1="203.3789" x2="203.3789" y1="388.6094" y2="443.8281"/><text fill="#000000" font-family="sans-serif" font-size="14" lengthAdjust="spacing" textLength="114.3789" x="74" y="413.1426">Modding-Plattform</text><text fill="#000000" font-family="sans-serif" font-size="14" lengthAdjust="spacing" textLength="88.6826" x="74" y="430.752">(Forge/Fabric)</text></g><!--link Clients to Minecraft--><g class="link" data-entity-1="Clients" data-entity-2="Minecraft" data-source-line="33" data-uid="lnk12" id="link_Clients_Minecraft"><path d="M256.18,320.8594 C275.68,320.8594 290,320.8594 309.84,320.8594" fill="none" id="Clients-to-Minecraft" style="stroke:#181818;stroke-width:1;"/><polygon fill="#181818" points="315.84,320.8594,306.84,316.8594,310.84,320.8594,306.84,324.8594,315.84,320.8594" style="stroke:#181818;stroke-width:1;"/><text fill="#000000" font-family="sans-serif" font-size="13" lengthAdjust="spacing" textLength="41.8945" x="186.4404" y="335.3545">TCP/IP</text><text fill="#000000" font-family="sans-serif" font-size="13" lengthAdjust="spacing" textLength="156.7554" x="129.01" y="351.7061">(Minecraft-Game-Protokoll)</text></g><!--link Minecraft to Identity--><g class="link" data-entity-1="Minecraft" data-entity-2="Identity" data-source-line="34" data-uid="lnk13" id="link_Minecraft_Identity"><path d="M587.28,318.4394 C668.48,318.4394 756,318.4394 756,318.4394 C756,318.4394 756,312.6694 756,299.7994" fill="none" id="Minecraft-to-Identity" style="stroke:#181818;stroke-width:1;"/><polygon fill="#181818" points="756,293.7994,752,302.7994,756,298.7994,760,302.7994,756,293.7994" style="stroke:#181818;stroke-width:1;"/><text fill="#000000" font-family="sans-serif" font-size="13" lengthAdjust="spacing" textLength="42.6118" x="704.8377" y="307.4345">HTTPS</text><text fill="#000000" font-family="sans-serif" font-size="13" lengthAdjust="spacing" textLength="82.3672" x="684.96" y="323.7861">(Auth / Token)</text></g><!--link Minecraft to Commerce--><g class="link" data-entity-1="Minecraft" data-entity-2="Commerce" data-source-line="35" data-uid="lnk14" id="link_Minecraft_Commerce"><path d="M587.05,361.1094 C607,361.1094 621.33,361.1094 640.65,361.1094" fill="none" id="Minecraft-to-Commerce" style="stroke:#181818;stroke-width:1;"/><polygon fill="#181818" points="646.65,361.1094,637.65,357.1094,641.65,361.1094,637.65,365.1094,646.65,361.1094" style="stroke:#181818;stroke-width:1;"/><text fill="#000000" font-family="sans-serif" font-size="13" lengthAdjust="spacing" textLength="42.6118" x="641.7077" y="341.6045">HTTPS</text><text fill="#000000" font-family="sans-serif" font-size="13" lengthAdjust="spacing" textLength="90.3271" x="617.85" y="357.9561">(Kaeufe / Abos)</text></g><!--link Minecraft to SelfHostHW--><g class="link" data-entity-1="Minecraft" data-entity-2="SelfHostHW" data-source-line="37" data-uid="lnk15" id="link_Minecraft_SelfHostHW"><path d="M452,298.0794 C452,214.4094 452,77.1094 452,77.1094 C452,77.1094 566.79,77.1094 655.96,77.1094" fill="none" id="Minecraft-to-SelfHostHW" style="stroke:#181818;stroke-width:1;"/><polygon fill="#181818" points="661.96,77.1094,652.96,73.1094,656.96,77.1094,652.96,81.1094,661.96,77.1094" style="stroke:#181818;stroke-width:1;"/><text fill="#000000" font-family="sans-serif" font-size="13" lengthAdjust="spacing" textLength="69.3672" x="348.8618" y="97.1045">Deployment</text><text fill="#000000" font-family="sans-serif" font-size="13" lengthAdjust="spacing" textLength="135.0908" x="316" y="113.4561">Minecraft Server (Java)</text></g><!--link Minecraft to RealmsHW--><g class="link" data-entity-1="Minecraft" data-entity-2="RealmsHW" data-source-line="38" data-uid="lnk16" id="link_Minecraft_RealmsHW"><path d="M587.04,308.2794 C629.74,308.2794 666,308.2794 666,308.2794 C666,308.2794 666,239.2194 666,199.3494" fill="none" id="Minecraft-to-RealmsHW" style="stroke:#181818;stroke-width:1;"/><polygon fill="#181818" points="666,193.3494,662,202.3494,666,198.3494,670,202.3494,666,193.3494" style="stroke:#181818;stroke-width:1;"/><text fill="#000000" font-family="sans-serif" font-size="13" lengthAdjust="spacing" textLength="69.3672" x="542.1741" y="270.7845">Deployment</text><text fill="#000000" font-family="sans-serif" font-size="13" lengthAdjust="spacing" textLength="177.7153" x="488" y="287.1361">Realms-Server (Java/Bedrock)</text></g><!--link Minecraft to WorldStore--><g class="link" data-entity-1="Minecraft" data-entity-2="WorldStore" data-source-line="40" data-uid="lnk17" id="link_Minecraft_WorldStore"><path d="M587.28,408.8594 C668.48,408.8594 756,408.8594 756,408.8594 C756,408.8594 756,412.1594 756,422.9094" fill="none" id="Minecraft-to-WorldStore" style="stroke:#181818;stroke-width:1;"/><polygon fill="#181818" points="756,428.9094,760,419.9094,756,423.9094,752,419.9094,756,428.9094" style="stroke:#181818;stroke-width:1;"/><text fill="#000000" font-family="sans-serif" font-size="13" lengthAdjust="spacing" textLength="62.1182" x="708.3141" y="406.3545">Filesystem</text><text fill="#000000" font-family="sans-serif" font-size="13" lengthAdjust="spacing" textLength="113.4263" x="682.66" y="422.7061">World/Player-Daten</text></g><!--link Minecraft to PluginDB--><g class="link" data-entity-1="Minecraft" data-entity-2="PluginDB" data-source-line="41" data-uid="lnk18" id="link_Minecraft_PluginDB"><path d="M497,424.3494 C497,482.6194 497,560.1094 497,560.1094 C497,560.1094 575.37,560.1094 647.71,560.1094" fill="none" id="Minecraft-to-PluginDB" style="stroke:#181818;stroke-width:1;"/><polygon fill="#181818" points="653.71,560.1094,644.71,556.1094,648.71,560.1094,644.71,564.1094,653.71,560.1094" style="stroke:#181818;stroke-width:1;"/><text fill="#000000" font-family="sans-serif" font-size="13" lengthAdjust="spacing" textLength="59.23" x="439.4331" y="574.6045">DB-Zugriff</text><text fill="#000000" font-family="sans-serif" font-size="13" lengthAdjust="spacing" textLength="75.1563" x="431.47" y="590.9561">Plugin-Daten</text></g><!--link Minecraft to RealmsStorage--><g class="link" data-entity-1="Minecraft" data-entity-2="RealmsStorage" data-source-line="42" data-uid="lnk19" id="link_Minecraft_RealmsStorage"><path d="M407,424.3094 C407,511.7794 407,659.1094 407,659.1094 C407,659.1094 583,659.1094 683.95,659.1094" fill="none" id="Minecraft-to-RealmsStorage" style="stroke:#181818;stroke-width:1;"/><polygon fill="#181818" points="689.95,659.1094,680.95,655.1094,684.95,659.1094,680.95,663.1094,689.95,659.1094" style="stroke:#181818;stroke-width:1;"/><text fill="#000000" font-family="sans-serif" font-size="13" lengthAdjust="spacing" textLength="60.6899" x="358.2673" y="673.6045">Persistenz</text><text fill="#000000" font-family="sans-serif" font-size="13" lengthAdjust="spacing" textLength="83.0845" x="347.07" y="689.9561">Realms-Daten</text></g><!--link ModdingEnv to Minecraft--><g class="link" data-entity-1="ModdingEnv" data-entity-2="Minecraft" data-source-line="44" data-uid="lnk20" id="link_ModdingEnv_Minecraft"><path d="M213.18,401.3594 C244.1,401.3594 274.67,401.3594 309.75,401.3594" fill="none" id="ModdingEnv-to-Minecraft" style="stroke:#181818;stroke-width:1;"/><polygon fill="#181818" points="315.75,401.3594,306.75,397.3594,310.75,401.3594,306.75,405.3594,315.75,401.3594" style="stroke:#181818;stroke-width:1;"/><text fill="#000000" font-family="sans-serif" font-size="13" lengthAdjust="spacing" textLength="78.0381" x="265.47" y="415.8545">Plugins/Mods</text><text fill="#000000" font-family="sans-serif" font-size="13" lengthAdjust="spacing" textLength="69.3672" x="269.8054" y="432.2061">Deployment</text></g><!--SRC=[RLJ1Rfj04Btp5QCSMaSoHQtKInL5YksaILEdRh5KAV9bWJ6ilCnOkqiQj-g_T_1YGvno0lQzDszc7dZj3S9S4-PMhJt4iCIy8kto2YtSCtbyzb7aDfgsogeQSgwtJ4W-zJjXMiozejBW0694pU-s26nznOC3Lwc2VsagOQsCmyYWLFGCLfULXqAtOfefYjv2wj4YjoeKByK2gCPb1gb0YYfT8BWZO0_VoNCDulc9ROMPeFgoHu_m9mAOi2tGJjcmlRXmUzxb9MH6vPlZwRBI-ORGkG7YWvp-u8QAALl28VVzn-Zlm0IluOvQTqvS6mUJLZhZvwZtSRQY5K5x7ISVfrkD9cXsPwElgg5s3sEO6YqZ7qCg3Q9DVg0ojJlVergfCr1ki4JepRM- -et2WyghJDbmYX6nJFBiceeIhKAFAnhDq6qyRyVjxXqR7CESCsq2u7nVA9Xn1xOkKKRLMOlJheFHhRB5BsKn-PO6MefcVSlEt_xicBtXq0-CfeQR8g33goFsJXRljHSFhf3gpak5kSujEnR-LPxBPZfx7NJNCHzLPHegEvf1tIO74aaOMtoXCkMwHfjZrsNt51NAgqmvaVh9rXJm1XP6xKIZLL1bgt6Z3OQPVeA7oJAveYTju5sTgw2r9-uB3jGMfYarnRE92AJVlsgFoNmdDyb2XbHQbDl03i3PPC2TAvBAnS12c5VyQe8TuZ1oBWhv_cBfmFirstPHDsnBJ6vKPdKUc1tgcfvEudClPL7ocy32ikSD6_dmkpX075yEClW9bjD5ShVOJ_YGyS-gnlX8FOy6_nqX7nOdtDlbSf4AzQhnbLHRyWRf57vOq01-hx1Pj_QkCdRdqGcX3w1GPhWrlAkbuefwM0WnZBwe9tLQxv384t8t-24pcM1XET-ySj3dG4JwqAneVv24NCKpvUN_zP9vo41RV18_DgNLw_MA3Xdw3-F5-eMsGElQxDFle-T0Y_frlzfXq7U9GDoA-hQZVm00]--></g></svg>