<svg xmlns="http://www.w3.org/2000/svg" xmlns:xlink="http://www.w3.org/1999/xlink" contentStyleType="text/css" data-diagram-type="DESCRIPTION" height="816px" preserveAspectRatio="none" style="width:1020px;height:816px;background:#FFFFFF;" version="1.1" viewBox="0 0 1020 816" width="1020px" zoomAndPan="magnify"><title>Minecraft - Verteilungsdiagramm (Deployment)</title><defs/><g><g class="title" data-source-line="1"><text fill="#000000" font-family="sans-serif" font-size="14" font-weight="bold" lengthAdjust="spacing" textLength="311.165" x="347.4175" y="24.5332">Minecraft - Verteilungsdiagramm (Deployment)</text></g><!--cluster ClientDevice--><g class="cluster" data-entity="ClientDevice" data-source-line="8" data-uid="ent0002" id="cluster_ClientDevice"><polygon fill="none" points="16,304.6094,26,294.6094,767,294.6094,767,611.6094,757,621.6094,16,621.6094,16,304.6094" style="stroke:#181818;stroke-width:1;"/><line style="stroke:#181818;stroke-width:1;" x1="757" x2="767" y1="304.6094" y2="294.6094"/><line style="stroke:#181818;stroke-width:1;" x1="16" x2="757" y1="304.6094" y2="304.6094"/><line style="stroke:#181818;stroke-width:1;" x1="757" x2="757" y1="304.6094" y2="621.6094"/><text fill="#000000" font-family="sans-serif" font-size="14" font-weight="bold" lengthAdjust="spacing" textLength="80.124" x="347.438" y="322.1426">Client-Ger&#228;t</text></g><!--cluster Desktop--><g class="cluster" data-entity="Desktop" data-source-line="9" data-uid="ent0003" id="cluster_Desktop"><polygon fill="none" points="336.5,492.6094,346.5,482.6094,743,482.6094,743,587.6094,733,597.6094,336.5,597.6094,336.5,492.6094" style="stroke:#181818;stroke-width:1;"/><line style="stroke:#181818;stroke-width:1;" x1="733" x2="743" y1="492.6094" y2="482.6094"/><line style="stroke:#181818;stroke-width:1;" x1="336.5" x2="733" y1="492.6094" y2="492.6094"/><line style="stroke:#181818;stroke-width:1;" x1="733" x2="733" y1="492.6094" y2="597.6094"/><text fill="#000000" font-family="sans-serif" font-size="14" font-weight="bold" lengthAdjust="spacing" textLength="223.2412" x="424.1294" y="510.1426">Desktop (Windows/macOS/Linux)</text></g><!--cluster ConsoleMobile--><g class="cluster" data-entity="ConsoleMobile" data-source-line="15" data-uid="ent0007" id="cluster_ConsoleMobile"><polygon fill="none" points="61.5,353.6094,71.5,343.6094,492,343.6094,492,448.6094,482,458.6094,61.5,458.6094,61.5,353.6094" style="stroke:#181818;stroke-width:1;"/><line style="stroke:#181818;stroke-width:1;" x1="482" x2="492" y1="353.6094" y2="343.6094"/><line style="stroke:#181818;stroke-width:1;" x1="61.5" x2="482" y1="353.6094" y2="353.6094"/><line style="stroke:#181818;stroke-width:1;" x1="482" x2="482" y1="353.6094" y2="458.6094"/><text fill="#000000" font-family="sans-serif" font-size="14" font-weight="bold" lengthAdjust="spacing" textLength="103.4414" x="221.0293" y="371.1426">Konsole / Mobil</text></g><!--cluster ServerHost--><g class="cluster" data-entity="ServerHost" data-source-line="25" data-uid="ent0012" id="cluster_ServerHost"><polygon fill="none" points="609.14,54.6094,619.14,44.6094,1003,44.6094,1003,260.6094,993,270.6094,609.14,270.6094,609.14,54.6094" style="stroke:#181818;stroke-width:1;"/><line style="stroke:#181818;stroke-width:1;" x1="993" x2="1003" y1="54.6094" y2="44.6094"/><line style="stroke:#181818;stroke-width:1;" x1="609.14" x2="993" y1="54.6094" y2="54.6094"/><line style="stroke:#181818;stroke-width:1;" x1="993" x2="993" y1="54.6094" y2="270.6094"/><text fill="#000000" font-family="sans-serif" font-size="14" font-weight="bold" lengthAdjust="spacing" textLength="79.3652" x="762.3874" y="72.1426">Server-Host</text></g><!--cluster Server--><g class="cluster" data-entity="Server" data-source-line="26" data-uid="ent0013" id="cluster_Server"><polygon fill="none" points="641.14,111.6094,651.14,101.6094,971,101.6094,971,228.6094,961,238.6094,641.14,238.6094,641.14,111.6094" style="stroke:#181818;stroke-width:1;"/><line style="stroke:#181818;stroke-width:1;" x1="961" x2="971" y1="111.6094" y2="101.6094"/><line style="stroke:#181818;stroke-width:1;" x1="641.14" x2="961" y1="111.6094" y2="111.6094"/><line style="stroke:#181818;stroke-width:1;" x1="961" x2="961" y1="111.6094" y2="238.6094"/><text fill="#000000" font-family="sans-serif" font-size="14" font-weight="bold" lengthAdjust="spacing" textLength="109.7168" x="747.2116" y="129.1426">Minecraft Server</text></g><!--entity Launcher--><g class="entity" data-entity="Launcher" data-source-line="21" data-uid="ent0011" id="entity_Launcher"><polygon fill="#F1F1F1" points="32,538.6094,42,528.6094,259.5234,528.6094,259.5234,566.2188,249.5234,576.2188,32,576.2188,32,538.6094" style="stroke:#181818;stroke-width:0.5;"/><line style="stroke:#181818;stroke-width:0.5;" x1="249.5234" x2="259.5234" y1="538.6094" y2="528.6094"/><line style="stroke:#181818;stroke-width:0.5;" x1="32" x2="249.5234" y1="538.6094" y2="538.6094"/><line style="stroke:#181818;stroke-width:0.5;" x1="249.5234" x2="249.5234" y1="538.6094" y2="576.2188"/><text fill="#000000" font-family="sans-serif" font-size="14" lengthAdjust="spacing" textLength="187.5234" x="47" y="563.1426">Minecraft Launcher / Plattform</text></g><!--entity ClientJava--><g class="entity" data-entity="ClientJava" data-source-line="10" data-uid="ent0004" id="entity_ClientJava"><rect fill="#F1F1F1" height="58.2188" rx="2.5" ry="2.5" style="stroke:#181818;stroke-width:0.5;" width="127.2549" x="352.5" y="523.6094"/><polygon fill="#F1F1F1" points="462.7549,528.6094,462.7549,542.6094,474.7549,542.6094,474.7549,534.6094,468.7549,528.6094,462.7549,528.6094" style="stroke:#181818;stroke-width:0.5;"/><line style="stroke:#181818;stroke-width:0.5;" x1="468.7549" x2="468.7549" y1="528.6094" y2="534.6094"/><line style="stroke:#181818;stroke-width:0.5;" x1="474.7549" x2="468.7549" y1="534.6094" y2="534.6094"/><text fill="#000000" font-family="sans-serif" font-size="14" lengthAdjust="spacing" textLength="97.2549" x="362.5" y="551.1426">Minecraft Client</text><text fill="#000000" font-family="sans-serif" font-size="14" lengthAdjust="spacing" textLength="85.5928" x="362.5" y="568.752">(Java Edition)</text></g><!--entity JRE--><g class="entity" data-entity="JRE" data-source-line="11" data-uid="ent0005" id="entity_JRE"><rect fill="#F1F1F1" height="40.6094" rx="2.5" ry="2.5" style="stroke:#181818;stroke-width:0.5;" width="155.2549" x="572" y="532.1094"/><polygon fill="#F1F1F1" points="710.2549,537.1094,710.2549,551.1094,722.2549,551.1094,722.2549,543.1094,716.2549,537.1094,710.2549,537.1094" style="stroke:#181818;stroke-width:0.5;"/><line style="stroke:#181818;stroke-width:0.5;" x1="716.2549" x2="716.2549" y1="537.1094" y2="543.1094"/><line style="stroke:#181818;stroke-width:0.5;" x1="722.2549" x2="716.2549" y1="543.1094" y2="543.1094"/><text fill="#000000" font-family="sans-serif" font-size="14" lengthAdjust="spacing" textLength="125.2549" x="582" y="559.6426">Java Runtime (JRE)</text></g><!--entity ClientBedrock--><g class="entity" data-entity="ClientBedrock" data-source-line="16" data-uid="ent0008" id="entity_ClientBedrock"><rect fill="#F1F1F1" height="58.2188" rx="2.5" ry="2.5" style="stroke:#181818;stroke-width:0.5;" width="137.3789" x="77.5" y="384.6094"/><polygon fill="#F1F1F1" points="197.8789,389.6094,197.8789,403.6094,209.8789,403.6094,209.8789,395.6094,203.8789,389.6094,197.8789,389.6094" style="stroke:#181818;stroke-width:0.5;"/><line style="stroke:#181818;stroke-width:0.5;" x1="203.8789" x2="203.8789" y1="389.6094" y2="395.6094"/><line style="stroke:#181818;stroke-width:0.5;" x1="209.8789" x2="203.8789" y1="395.6094" y2="395.6094"/><text fill="#000000" font-family="sans-serif" font-size="14" lengthAdjust="spacing" textLength="97.2549" x="87.5" y="412.1426">Minecraft Client</text><text fill="#000000" font-family="sans-serif" font-size="14" lengthAdjust="spacing" textLength="107.3789" x="87.5" y="429.752">(Bedrock Edition)</text></g><!--entity CPP--><g class="entity" data-entity="CPP" data-source-line="17" data-uid="ent0009" id="entity_CPP"><rect fill="#F1F1F1" height="58.2188" rx="2.5" ry="2.5" style="stroke:#181818;stroke-width:0.5;" width="120.2617" x="356" y="384.6094"/><polygon fill="#F1F1F1" points="459.2617,389.6094,459.2617,403.6094,471.2617,403.6094,471.2617,395.6094,465.2617,389.6094,459.2617,389.6094" style="stroke:#181818;stroke-width:0.5;"/><line style="stroke:#181818;stroke-width:0.5;" x1="465.2617" x2="465.2617" y1="389.6094" y2="395.6094"/><line style="stroke:#181818;stroke-width:0.5;" x1="471.2617" x2="465.2617" y1="395.6094" y2="395.6094"/><text fill="#000000" font-family="sans-serif" font-size="14" lengthAdjust="spacing" textLength="90.2617" x="366" y="412.1426">C++ Runtime /</text><text fill="#000000" font-family="sans-serif" font-size="14" lengthAdjust="spacing" textLength="84.7998" x="366" y="429.752">Platform SDK</text></g><!--entity Daten--><g class="entity" data-entity="Daten" data-source-line="27" data-uid="ent0014" id="entity_Daten"><path d="M799,160.6094 C799,150.6094 873.1963,150.6094 873.1963,150.6094 C873.1963,150.6094 947.3926,150.6094 947.3926,160.6094 L947.3926,204.8281 C947.3926,214.8281 873.1963,214.8281 873.1963,214.8281 C873.1963,214.8281 799,214.8281 799,204.8281 L799,160.6094" fill="#F1F1F1" style="stroke:#181818;stroke-width:0.5;"/><path d="M799,160.6094 C799,170.6094 873.1963,170.6094 873.1963,170.6094 C873.1963,170.6094 947.3926,170.6094 947.3926,160.6094" fill="none" style="stroke:#181818;stroke-width:0.5;"/><text fill="#000000" font-family="sans-serif" font-size="14" lengthAdjust="spacing" textLength="128.3926" x="809" y="189.1426">Welt- &amp; Spielerdaten</text><text fill="#000000" font-family="sans-serif" font-size="14" lengthAdjust="spacing" textLength="92.5723" x="809" y="206.752">(NBT, Chunks)</text></g><!--entity Xbox--><g class="entity" data-entity="Xbox" data-source-line="32" data-uid="ent0015" id="entity_Xbox"><path d="M583.4397,747.819 C586.3958,742.1222 591.2258,739.9873 595.878,746.0206 C597.9954,741.0267 601.8629,739.5191 606.2279,743.3992 C608.3816,738.2317 613.9542,737.5493 617.4121,741.8603 C620.1618,736.8316 623.5353,735.1693 627.9768,740.058 C631.2522,733.4691 635.9663,732.5606 640.525,738.803 C643.4826,732.7001 647.0411,732.8657 651.7132,736.9133 C656.3274,732.4521 660.3148,733.9613 662.6174,739.4472 C666.7874,734.6474 671.9088,735.3603 673.7048,741.791 C677.8941,736.9469 681.3431,736.5788 684.7582,742.58 C688.7274,737.3397 692.3569,737.8961 695.9904,742.9465 C699.9164,738.507 704.8407,739.7025 706.3165,745.434 C710.4552,740.9096 715.4599,741.0229 717.3989,747.625 C724.2583,750.7182 723.3432,756.4993 717.934,760.118 C724.668,762.8519 726.134,766.707 721.2983,772.5675 C725.42,776.8702 725.5168,781.2114 719.6652,784.102 C724.9,789.1365 724.1083,793.6793 717.4067,796.5478 C714.9243,803.1407 710.6031,802.5523 706.3627,798.3457 C702.3948,803.9132 698.5099,803.1643 694.6239,798.2539 C691.8193,804.0809 687.575,805.4445 682.8961,800.2479 C681.0273,805.605 676.4914,805.3554 673.2134,801.7745 C670.1059,806.7088 666.1319,807.2607 662.7847,802.0202 C660.1332,808.5235 656.0175,809.0567 651.6632,803.6043 C647.8559,808.6364 643.3925,808.2818 640.5456,802.6071 C636.2678,809.2183 630.8498,807.8392 627.4276,801.7252 C623.7169,804.9747 619.802,805.3489 617.9911,799.7086 C614.1995,805.8398 609.5147,805.9737 606.0625,799.3902 C602.51,803.7849 597.6185,803.7826 594.711,798.6237 C589.9919,803.1056 586.5741,802.9094 583.7014,796.719 C576.5723,792.1842 578.1703,787.5836 583.764,783.1073 C578.5282,781.5434 576.018,776.7368 580.9379,772.4738 C575.1077,767.6092 577.1722,762.4773 583.0051,759.4662 C577.6193,756.0883 578.2503,750.8022 583.4397,747.819" fill="#F1F1F1" style="stroke:#181818;stroke-width:0.5;"/><text fill="#000000" font-family="sans-serif" font-size="14" lengthAdjust="spacing" textLength="119.041" x="590" y="767.6426">Microsoft Account /</text><text fill="#000000" font-family="sans-serif" font-size="14" lengthAdjust="spacing" textLength="119.0547" x="590" y="785.252">Xbox Live Services</text></g><!--entity Market--><g class="entity" data-entity="Market" data-source-line="33" data-uid="ent0016" id="entity_Market"><path d="M583.8937,647.5097 C586.2301,642.5941 590.6729,642.6311 593.8296,646.5914 C595.1001,640.1066 599.9477,638.207 604.8545,643.0532 C607.9607,637.3688 612.7415,636.1444 617.1911,641.5602 C620.6383,636.1006 624.4698,637.3869 627.7699,641.7191 C629.4924,635.942 634.6317,633.4514 639.5314,638.1529 C641.4956,632.3063 646.1459,631.62 649.7491,636.6071 C654.3304,631.5546 659.5458,632.8095 661.6266,639.2022 C666.1062,632.9 670.1335,634.3284 674.1152,639.7334 C678.0023,635.4059 681.8889,636.5907 683.9022,641.6806 C688.8544,636.4669 692.7243,638.486 695.5281,644.0073 C700.068,639.5406 703.4238,639.315 706.1711,645.7563 C710.8744,639.8537 715.4793,639.8085 718.921,646.986 C724.8894,649.8222 725.9628,654.7769 721.2407,659.5818 C728.3151,661.4793 730.4268,666.9784 725.4503,672.7332 C730.0293,678.4815 728.8742,682.5694 721.4209,684.0236 C726.1946,689.0569 725.0144,694.4099 718.5729,696.9775 C715.3357,702.256 711.684,703.0018 707.9464,697.4694 C704.8594,702.099 699.002,702.983 696.1845,697.166 C692.8091,702.438 687.5694,702.8807 684.2227,697.1348 C681.4234,701.2132 677.5922,702.1927 674.3818,697.6015 C671.1598,702.9973 665.7228,704.0056 661.8174,698.3807 C658.2439,705.0369 653.8699,704.1308 649.8005,698.8813 C646.6248,703.1212 643.5852,702.6679 640.5402,698.7333 C636.4091,704.4237 631.5579,703.1762 628.6092,697.493 C624.8397,703.0604 621.487,702.9028 617.8846,697.3321 C613.4438,703.9477 608.5044,703.5904 604.8111,696.6131 C602.04,701.8149 597.875,702.7615 594.2738,697.4447 C590.6849,702.5494 585.3442,702.6526 582.8478,696.3503 C577.1215,693.0443 576.1004,689.58 581.0144,684.612 C574.7598,682.6113 572.907,676.2842 577.8108,671.5473 C572.1687,667.0402 573.1098,662.0107 579.5683,659.2302 C575.022,653.3255 576.7671,649.1065 583.8937,647.5097" fill="#F1F1F1" style="stroke:#181818;stroke-width:0.5;"/><text fill="#000000" font-family="sans-serif" font-size="14" lengthAdjust="spacing" textLength="121.3789" x="589" y="667.6426">Ressourcenserver /</text><text fill="#000000" font-family="sans-serif" font-size="14" lengthAdjust="spacing" textLength="76.2549" x="589" y="685.252">Marketplace</text></g><!--entity Modding--><g class="entity" data-entity="Modding" data-source-line="34" data-uid="ent0017" id="entity_Modding"><polygon fill="#F1F1F1" points="320,208.1094,330,198.1094,512.4961,198.1094,512.4961,253.3281,502.4961,263.3281,320,263.3281,320,208.1094" style="stroke:#181818;stroke-width:0.5;"/><line style="stroke:#181818;stroke-width:0.5;" x1="502.4961" x2="512.4961" y1="208.1094" y2="198.1094"/><line style="stroke:#181818;stroke-width:0.5;" x1="320" x2="502.4961" y1="208.1094" y2="208.1094"/><line style="stroke:#181818;stroke-width:0.5;" x1="502.4961" x2="502.4961" y1="208.1094" y2="263.3281"/><text fill="#000000" font-family="sans-serif" font-size="14" lengthAdjust="spacing" textLength="129.9512" x="335" y="232.6426">Modding-Plattformen</text><text fill="#000000" font-family="sans-serif" font-size="14" lengthAdjust="spacing" textLength="152.4961" x="335" y="250.252">(Forge, Fabric, Add-ons)</text></g><!--link ClientJava to JRE--><!--link ClientBedrock to CPP--><!--link ClientJava to Server--><g class="link" data-entity-1="ClientJava" data-entity-2="Server" data-source-line="37" data-uid="lnk18" id="link_ClientJava_Server"><path d="M479.63,527.8594 C548.92,527.8594 650,527.8594 650,527.8594 C650,527.8594 650,454.7044 650,380.9769 C650,344.1131 650,307.1063 650,279.0291 C650,264.9905 650,253.1843 650,244.7446 C650,242.6347 650,240.7352 650,239.0639" fill="none" id="ClientJava-Server" style="stroke:#181818;stroke-width:2;"/><text fill="#000000" font-family="sans-serif" font-size="13" lengthAdjust="spacing" textLength="41.8945" x="608" y="478.9445">TCP/IP</text></g><!--link ClientBedrock to Server--><g class="link" data-entity-1="ClientBedrock" data-entity-2="Server" data-source-line="38" data-uid="lnk19" id="link_ClientBedrock_Server"><path d="M146,384.2194 C146,358.0494 146,323.8594 146,323.8594 C146,323.8594 689,323.8594 689,323.8594 C689,323.8594 689,300.5469 689,277.2344 C689,265.5781 689,253.9219 689,245.1797 C689,242.9941 689,240.9907 689,239.215 C689,239.104 689,238.9939 689,238.8847" fill="none" id="ClientBedrock-Server" style="stroke:#181818;stroke-width:2;"/><text fill="#000000" font-family="sans-serif" font-size="13" lengthAdjust="spacing" textLength="41.8945" x="411.47" y="338.3545">TCP/IP</text></g><!--link Launcher to ClientJava--><g class="link" data-entity-1="Launcher" data-entity-2="ClientJava" data-source-line="39" data-uid="lnk20" id="link_Launcher_ClientJava"><path d="M260.11,552.6094 C291.63,552.6094 318.71,552.6094 346.24,552.6094" fill="none" id="Launcher-to-ClientJava" style="stroke:#181818;stroke-width:1;"/><polygon fill="#181818" points="352.24,552.6094,343.24,548.6094,347.24,552.6094,343.24,556.6094,352.24,552.6094" style="stroke:#181818;stroke-width:1;"/><text fill="#000000" font-family="sans-serif" font-size="13" lengthAdjust="spacing" textLength="159.6943" x="146.18" y="567.1045">Installation / Updates / Start</text></g><!--link ClientJava to Xbox--><g class="link" data-entity-1="ClientJava" data-entity-2="Xbox" data-source-line="40" data-uid="lnk21" id="link_ClientJava_Xbox"><path d="M416,581.8494 C416,638.9594 416,759.7794 416,759.7794 C416,759.7794 500.64,759.7794 568.98,759.7794" fill="none" id="ClientJava-to-Xbox" style="stroke:#181818;stroke-width:1;"/><polygon fill="#181818" points="574.98,759.7794,565.98,755.7794,569.98,759.7794,565.98,763.7794,574.98,759.7794" style="stroke:#181818;stroke-width:1;"/><text fill="#000000" font-family="sans-serif" font-size="13" lengthAdjust="spacing" textLength="170.5298" x="245" y="764.7945">Authentifizierung / Multiplayer</text></g><!--link ClientBedrock to Xbox--><g class="link" data-entity-1="ClientBedrock" data-entity-2="Xbox" data-source-line="41" data-uid="lnk22" id="link_ClientBedrock_Xbox"><path d="M214.63,423.2794 C251.71,423.2794 290,423.2794 290,423.2794 C290,423.2794 290,781.4394 290,781.4394 C290,781.4394 463.22,781.4394 568.57,781.4394" fill="none" id="ClientBedrock-to-Xbox" style="stroke:#181818;stroke-width:1;"/><polygon fill="#181818" points="574.57,781.4394,565.57,777.4394,569.57,781.4394,565.57,785.4394,574.57,781.4394" style="stroke:#181818;stroke-width:1;"/><text fill="#000000" font-family="sans-serif" font-size="13" lengthAdjust="spacing" textLength="170.5298" x="119" y="721.4545">Authentifizierung / Multiplayer</text></g><!--link ClientJava to Market--><g class="link" data-entity-1="ClientJava" data-entity-2="Market" data-source-line="42" data-uid="lnk23" id="link_ClientJava_Market"><path d="M479.63,577.3594 C548.92,577.3594 650,577.3594 650,577.3594 C650,577.3594 650,605.1094 650,631.9994" fill="none" id="ClientJava-to-Market" style="stroke:#181818;stroke-width:1;"/><polygon fill="#181818" points="650,637.9994,654,628.9994,650,632.9994,646,628.9994,650,637.9994" style="stroke:#181818;stroke-width:1;"/><text fill="#000000" font-family="sans-serif" font-size="13" lengthAdjust="spacing" textLength="186.418" x="596.13" y="591.8545">Inhalte (Skins, Welten, Add-ons)</text></g><!--link Server to Daten--><g class="link" data-entity-1="Server" data-entity-2="Daten" data-source-line="43" data-uid="lnk24" id="link_Server_Daten"><path d="M650,230.5394 C650,229.1194 650,206.3594 650,206.3594 C650,206.3594 727.87,206.3594 792.74,206.3594" fill="none" id="Server-to-Daten" style="stroke:#181818;stroke-width:1;"/><polygon fill="#181818" points="798.74,206.3594,789.74,202.3594,793.74,206.3594,789.74,210.3594,798.74,206.3594" style="stroke:#181818;stroke-width:1;"/><text fill="#000000" font-family="sans-serif" font-size="13" lengthAdjust="spacing" textLength="60.6899" x="651.28" y="220.8545">Persistenz</text></g><!--link Modding to Server--><g class="link" data-entity-1="Modding" data-entity-2="Server" data-source-line="44" data-uid="lnk25" id="link_Modding_Server"><path d="M512.32,230.6094 C542.975,230.6094 575.5675,230.6094 601.2888,230.6094 C614.1494,230.6094 625.2922,230.6094 633.6161,230.6094 C635.6971,230.6094 637.6019,230.6094 639.3133,230.6094 C639.7411,230.6094 640.1569,230.6094 640.5603,230.6094 C640.6612,230.6094 634.7612,230.6094 634.8605,230.6094" fill="none" id="Modding-to-Server" style="stroke:#181818;stroke-width:1;"/><polygon fill="#181818" points="640.8605,230.6094,631.8605,226.6094,635.8605,230.6094,631.8605,234.6094,640.8605,230.6094" style="stroke:#181818;stroke-width:1;"/><text fill="#000000" font-family="sans-serif" font-size="13" lengthAdjust="spacing" textLength="137.2998" x="581.67" y="245.1045">Plugins / Erweiterungen</text></g><!--SRC=[bLJRRjim37ttLn1zs58qHe0z5bY1DactNh8PJRiEQFkWI8mjH9O2IKvlwD_iJ_PZeoGdyO81szvYyXpoy92AbruXJAH6RjdSGmxVq7gKgj6b4vALbjKrz4QuLEQvHkttiqmX0Rq1AylAWv0MkPT6PsuXzP8H0HJLyyzB16DzPJe9Lp5X7gKkOSwKmonx3nVQUDI7C5IIokStTOapQfvf8n3sskWdj3z_-3rWhiMDS2Kvmci6a80ZT0jlbj2xbPfQk47D-DVfu5Bgvca_4jU8m05WriivunxsjiEdqlUwTyvM3CP2Xh7sErr3V8STeLUDzh96w9rVZHEUVaJWbWVvNIM5GFsG7xNfjsmZ_y9ePsWJ0vYOcLIfPuh50FwBx1CKrl35dvItgPqQmuE3ZVR1lIuKytDZQvYEBXAtA3fJhCjt1qc8pY1RMPUiqRn2IpE5mh5ohBfEP6_T_K_Hhj3kxh-DVZOkRJzzXy_ExhSzKxg3R6qJpBCPSuIzHULpU0VJfKI5bXAeoRel9zTz65QDNhZsMa8YZXPLZfyyMeqm8YESnumhquZGcLlZ37K-vjoGay76xpFp19ToXL43dQcB5KDupRj2vqnZEHLBCeasONQ1VgaOnuXFtwqF4oC4FPjyusHKVMfiYNquPJChUH-EXSZfPj80BIE8foSzerT1hj98tOlCxtmb-KAJceyV7jQM7SBri1YS5TdEsl-2tkmx3tUnxN88PsGPKwISZfAkuMOPN7VqQ-hf5dzNT1Hz8j9nuoiAoxbyaMX9UtWRZVAI77gcuzaLzv_4JRjaSrHPCUNf4K_fxyhr8LmAwgshMJjm8CNh84w1racw1_sIjNx7zCQQGZKb5IC5O_k8qaSzj8HV]--></g></svg>